<svg fill="none" height="404" viewBox="0 0 404 404" width="404" xmlns="http://www.w3.org/2000/svg" xmlns:xlink="http://www.w3.org/1999/xlink"><clipPath id="a"><path d="m.571411.571533h402.857v402.857h-402.857z"/></clipPath><g clip-path="url(#a)"><path d="m264.946 132.759c0 72.999-59.176 132.188-132.187 132.188-73.0117 0-132.187589-59.189-132.187589-132.188 0-73.043 59.175889-132.187467 132.187589-132.187467 73.011 0 132.187 59.144467 132.187 132.187467z" fill="#457da1" opacity=".3"/><g stroke="#457da1" stroke-miterlimit="10" stroke-width="12.5893"><path d="m189.411 309.009-44.063 25.179c-5.898 3.625-12.589 11.953-12.589 18.884v50.357"/><path d="m296.42 227.178v6.295c0 6.924-6.698 15.258-12.59 18.884l-44.062 25.179"/><path d="m132.759.571533v50.357167c0 6.9241 6.691 15.2582 12.589 18.8839l138.482 81.8304c5.892 3.626 12.59 11.96 12.59 18.884v37.768"/><path d="m132.759 195.706v37.767c0 6.925 6.691 15.259 12.589 18.884l138.482 81.831c5.892 3.625 12.59 11.953 12.59 18.884v50.357"/><path d="m189.411 126.465-44.063 25.178c-5.898 3.626-12.589 11.96-12.589 18.884v6.295"/><path d="m296.42.571533v50.357167c0 6.9241-6.698 15.2582-12.59 18.8839l-44.062 25.1786"/><path d="m151.643 44.634h125.893"/><path d="m151.643 19.4556h125.893"/><path d="m195.705 334.188h12.59"/><path d="m220.884 334.188h12.589"/><path d="m195.705 252.357h12.59"/><path d="m220.884 252.357h12.589"/><path d="m195.705 151.643h12.59"/><path d="m220.884 151.643h12.589"/><path d="m195.705 69.8125h12.59"/><path d="m220.884 69.8125h12.589"/><path d="m151.643 359.366h125.893"/><path d="m151.643 384.544h125.893"/><path d="m151.643 202h125.893"/><path d="m69.8125 176.822h207.7235"/><path d="m151.643 227.178h207.723"/><path d="m378.25 246.062c10.429 0 18.884-8.454 18.884-18.884 0-10.429-8.455-18.884-18.884-18.884s-18.884 8.455-18.884 18.884c0 10.43 8.455 18.884 18.884 18.884z"/><path d="m50.9286 195.705c10.4293 0 18.8839-8.454 18.8839-18.884 0-10.429-8.4546-18.883-18.8839-18.883s-18.8839 8.454-18.8839 18.883c0 10.43 8.4546 18.884 18.8839 18.884z"/><path d="m378.25 32.0444c0 12.583-25.179 12.5327-25.179 25.1157 0 12.6018 25.179 12.6018 25.179 25.21s-25.179 12.6082-25.179 25.2099"/><path d="m88.6964 258.652c0 12.577-25.1786 12.545-25.1786 25.128s25.1786 12.583 25.1786 25.166c0 12.602-25.1786 12.602-25.1786 25.21 0 12.609 25.1786 12.609 25.1786 25.21"/><path d="m365.661 290.125h-37.768"/><path d="m32.0447 246.062v12.59"/><path d="m63.5178 63.5181v12.5893"/><path d="m88.6964 88.6965v37.7675"/><path d="m107.58 107.581h-37.7675"/><path d="m334.188 139.053h-12.59"/><path d="m390.839 309.009h-12.589"/><path d="m340.482 359.366c3.477 0 6.295-2.818 6.295-6.294 0-3.477-2.818-6.295-6.295-6.295-3.476 0-6.294 2.818-6.294 6.295 0 3.476 2.818 6.294 6.294 6.294z"/></g></g></svg>