<svg width="1440" height="1005" viewBox="0 0 1440 1005" fill="none" xmlns="http://www.w3.org/2000/svg">
<path opacity="0.05" fill-rule="evenodd" clip-rule="evenodd" d="M811.874 -977.921C811.874 -934.247 776.774 -898.842 733.475 -898.842C690.176 -898.842 655.075 -934.247 655.075 -977.921C655.075 -1021.6 690.176 -1057 733.475 -1057C776.774 -1057 811.874 -1021.6 811.874 -977.921ZM985.446 -845.244C985.446 -801.57 950.345 -766.165 907.046 -766.165C863.747 -766.165 828.646 -801.57 828.646 -845.244C828.646 -888.918 863.747 -924.323 907.046 -924.323C950.345 -924.323 985.446 -888.918 985.446 -845.244ZM683.612 -540.129C667.835 -540.112 652.408 -544.818 639.284 -553.651C626.161 -562.484 615.931 -575.046 609.891 -589.748C603.851 -604.449 602.272 -620.628 605.355 -636.235C608.438 -651.842 616.043 -666.175 627.208 -677.42L675.337 -725.965C690.367 -740.564 710.473 -748.635 731.338 -748.447C752.202 -748.258 772.162 -739.825 786.93 -724.957C801.699 -710.09 810.098 -689.973 810.326 -668.928C810.553 -647.883 802.59 -627.587 788.146 -612.399L740.017 -563.853C732.639 -556.331 723.854 -550.361 714.172 -546.288C704.49 -542.216 694.103 -540.122 683.612 -540.129ZM298.79 -151.544C288.314 -151.496 277.932 -153.55 268.249 -157.585C258.566 -161.62 249.774 -167.556 242.386 -175.048C227.531 -190.148 219.195 -210.559 219.195 -231.831C219.195 -253.104 227.531 -273.514 242.386 -288.615L483.466 -531.563C490.858 -539.049 499.641 -544.993 509.311 -549.055C518.981 -553.117 529.35 -555.219 539.825 -555.239C550.3 -555.26 560.677 -553.199 570.362 -549.174C580.048 -545.149 588.853 -539.24 596.274 -531.783C603.696 -524.326 609.589 -515.468 613.616 -505.714C617.643 -495.96 619.726 -485.501 619.747 -474.935C619.767 -464.369 617.724 -453.903 613.734 -444.133C609.744 -434.364 603.885 -425.483 596.492 -417.997L355.195 -175.048C347.806 -167.556 339.015 -161.62 329.332 -157.585C319.649 -153.55 309.267 -151.496 298.79 -151.544ZM1294.69 380.703C1278.92 380.72 1263.49 376.015 1250.37 367.182C1237.24 358.349 1227.01 345.786 1220.97 331.085C1214.93 316.383 1213.35 300.204 1216.44 284.597C1219.52 268.99 1227.12 254.657 1238.29 243.413L1576.5 -98.1651C1583.85 -105.867 1592.65 -112.012 1602.39 -116.241C1612.12 -120.47 1622.6 -122.697 1633.2 -122.793C1643.8 -122.889 1654.31 -120.851 1664.12 -116.799C1673.93 -112.746 1682.84 -106.761 1690.33 -99.1934C1697.82 -91.6256 1703.73 -82.6274 1707.73 -72.725C1711.73 -62.8226 1713.73 -52.2152 1713.61 -41.5237C1713.5 -30.8322 1711.27 -20.2712 1707.06 -10.4591C1702.85 -0.646851 1696.74 8.21948 1689.09 15.6211L1350.44 357.199C1335.65 372.131 1315.62 380.576 1294.69 380.703ZM1101.96 575.107C1086.18 575.124 1070.76 570.418 1057.63 561.585C1044.51 552.752 1034.28 540.19 1028.24 525.488C1022.2 510.787 1020.62 494.608 1023.7 479.001C1026.79 463.394 1034.39 449.06 1045.56 437.816L1095.21 387.733C1110.27 373.164 1130.39 365.131 1151.25 365.36C1172.12 365.589 1192.06 374.062 1206.8 388.958C1221.54 403.855 1229.9 423.987 1230.09 445.033C1230.28 466.078 1222.28 486.359 1207.8 501.519L1158.37 551.603C1143.36 566.614 1123.1 575.058 1101.96 575.107ZM631.662 991.248C644.785 1000.08 660.213 1004.79 675.99 1004.77C697.067 1004.76 717.278 996.304 732.176 981.265L1014.2 697.239C1028.64 682.051 1036.61 661.755 1036.38 640.71C1036.15 619.665 1027.75 599.549 1012.98 584.681C998.215 569.813 978.255 561.38 957.39 561.191C936.526 561.003 916.42 569.074 901.39 583.673L619.585 867.479C608.421 878.723 600.815 893.056 597.733 908.663C594.65 924.27 596.228 940.449 602.268 955.151C608.308 969.852 618.538 982.415 631.662 991.248ZM-133.581 225.249C-120.371 234.247 -104.791 239.044 -88.8517 239.02C-78.1594 238.883 -67.6065 236.553 -57.835 232.172C-48.0634 227.792 -39.2775 221.452 -32.0118 213.538L211.899 -28.0925C219.577 -35.4528 225.724 -44.2828 229.98 -54.0667C234.236 -63.8506 236.516 -74.3923 236.686 -85.0752C236.857 -95.7581 234.915 -106.368 230.974 -116.285C227.032 -126.202 221.17 -135.228 213.731 -142.833C206.292 -150.439 197.424 -156.473 187.647 -160.583C177.869 -164.692 167.377 -166.794 156.785 -166.767C146.192 -166.739 135.711 -164.582 125.955 -160.422C116.198 -156.262 107.362 -150.182 99.9614 -142.538L-143.949 100.411C-155.49 111.501 -163.47 125.826 -166.857 141.536C-170.245 157.246 -168.885 173.62 -162.953 188.542C-157.021 203.465 -146.79 216.251 -133.581 225.249ZM650.508 108.978C634.777 108.892 619.421 104.125 606.364 95.2744C593.307 86.424 583.13 73.8839 577.108 59.2253C571.086 44.5668 569.486 28.4415 572.509 12.87C575.532 -2.70166 583.044 -17.0272 594.103 -28.3118L643.756 -78.3951C658.814 -92.9642 678.936 -100.997 699.8 -100.767C720.665 -100.538 740.608 -92.0659 755.348 -77.1696C770.088 -62.2731 778.449 -42.1407 778.636 -21.0952C778.823 -0.0498047 770.82 20.2306 756.347 35.3909L706.694 85.2546C699.357 92.7701 690.61 98.7382 680.964 102.811C671.318 106.884 660.965 108.98 650.508 108.978ZM944.315 -246.389C957.392 -237.567 972.765 -232.845 988.497 -232.819C998.941 -232.776 1009.29 -234.833 1018.94 -238.868C1028.58 -242.904 1037.34 -248.838 1044.68 -256.323L1237.42 -450.726C1251.18 -466.016 1258.58 -486.062 1258.09 -506.707C1257.59 -527.352 1249.24 -547.015 1234.76 -561.617C1220.29 -576.22 1200.79 -584.644 1180.33 -585.142C1159.86 -585.64 1139.98 -578.174 1124.83 -564.293L932.093 -369.89C921.003 -358.634 913.463 -344.32 910.423 -328.75C907.383 -313.181 908.979 -297.052 915.01 -282.396C921.042 -267.739 931.238 -255.211 944.315 -246.389ZM120.432 643.421C104.699 643.395 89.3264 638.674 76.2494 629.852C63.1724 621.029 52.976 608.501 46.9449 593.845C40.9139 579.188 39.3177 563.06 42.3575 547.49C45.3973 531.92 52.9372 517.606 64.0273 506.351L449.494 117.545C464.524 102.947 484.63 94.8751 505.495 95.0636C526.359 95.2522 546.319 103.686 561.087 118.553C575.856 133.421 584.255 153.537 584.483 174.582C584.71 195.627 576.746 215.923 562.302 231.111L176.618 619.917C169.27 627.403 160.517 633.337 150.87 637.372C141.223 641.408 130.875 643.464 120.432 643.421ZM926.432 -170.875C926.432 -127.2 891.331 -91.7953 848.032 -91.7953C804.733 -91.7953 769.632 -127.2 769.632 -170.875C769.632 -214.549 804.733 -249.954 848.032 -249.954C891.331 -249.954 926.432 -214.549 926.432 -170.875ZM241.296 -401.082C225.519 -401.065 210.092 -405.771 196.968 -414.604C183.844 -423.436 173.615 -435.999 167.575 -450.701C161.535 -465.402 159.956 -481.581 163.039 -497.188C166.122 -512.795 173.727 -527.128 184.892 -538.372L234.545 -588.236C249.703 -602.118 269.577 -609.583 290.045 -609.085C310.513 -608.587 330.006 -600.164 344.484 -585.561C358.961 -570.958 367.312 -551.296 367.806 -530.651C368.3 -510.005 360.898 -489.96 347.136 -474.67L297.482 -424.586C282.584 -409.547 262.374 -401.093 241.296 -401.082ZM-284.869 71.5077C-271.799 80.4015 -256.407 85.1857 -240.64 85.2549C-230.138 85.2087 -219.749 83.0697 -210.069 78.9607C-200.389 74.8517 -191.61 68.8538 -184.236 61.3115L154.844 -280.267C169.317 -295.427 177.319 -315.707 177.132 -336.753C176.945 -357.798 168.584 -377.931 153.844 -392.827C139.104 -407.724 119.161 -416.196 98.2966 -416.425C77.4322 -416.654 57.3108 -408.622 42.2528 -394.053L-296.391 -52.2551C-307.592 -41.0624 -315.25 -26.7705 -318.396 -11.1874C-321.543 4.39587 -320.037 20.5704 -314.069 35.2903C-308.101 50.0101 -297.94 62.614 -284.869 71.5077ZM435.344 -597.023C424.831 -596.946 414.408 -598.985 404.685 -603.021C394.963 -607.057 386.136 -613.008 378.722 -620.527C363.867 -635.627 355.531 -656.037 355.531 -677.31C355.531 -698.583 363.867 -718.993 378.722 -734.093L523.326 -879.951C538.384 -894.52 558.506 -902.552 579.37 -902.323C600.235 -902.094 620.178 -893.621 634.918 -878.725C649.658 -863.828 658.019 -843.696 658.206 -822.65C658.393 -801.605 650.39 -781.325 635.917 -766.164L491.531 -620.527C484.168 -613.061 475.412 -607.14 465.768 -603.106C456.125 -599.072 445.784 -597.004 435.344 -597.023ZM850.426 213.319C834.649 213.336 819.221 208.63 806.098 199.797C792.974 190.964 782.745 178.401 776.705 163.7C770.665 148.999 769.086 132.82 772.169 117.213C775.251 101.606 782.857 87.2727 794.021 76.0286L843.675 26.1648C858.833 12.2831 878.707 4.81763 899.175 5.31567C919.643 5.81372 939.136 14.2372 953.613 28.84C968.091 43.4427 976.442 63.1049 976.936 83.7504C977.43 104.396 970.028 124.441 956.266 139.731L906.612 189.815C891.714 204.853 871.503 213.308 850.426 213.319ZM324.051 686.442C337.164 695.418 352.631 700.248 368.479 700.315C379.026 700.183 389.444 697.94 399.126 693.717C408.808 689.494 417.563 683.374 424.883 675.712L763.527 334.134C771.177 326.733 777.286 317.866 781.498 308.054C785.709 298.242 787.938 287.681 788.053 276.989C788.168 266.298 786.168 255.69 782.17 245.788C778.171 235.886 772.255 226.887 764.767 219.319C757.278 211.752 748.369 205.766 738.559 201.714C728.75 197.662 718.237 195.624 707.637 195.72C697.037 195.816 686.563 198.043 676.827 202.272C667.091 206.501 658.289 212.646 650.936 220.348L313.381 562.146C301.993 573.262 294.149 587.55 290.851 603.184C287.552 618.819 288.949 635.09 294.863 649.92C300.776 664.75 310.939 677.465 324.051 686.442ZM1044.47 17.3783C1033.99 17.4259 1023.61 15.3726 1013.93 11.3376C1004.24 7.30261 995.451 1.36633 988.062 -6.12598C973.207 -21.2262 964.872 -41.6366 964.872 -62.9092C964.872 -84.1818 973.207 -104.592 988.062 -119.692L1132.67 -265.549C1147.72 -280.119 1167.85 -288.151 1188.71 -287.922C1209.57 -287.693 1229.52 -279.22 1244.26 -264.324C1259 -249.427 1267.36 -229.295 1267.55 -208.249C1267.73 -187.204 1259.73 -166.924 1245.26 -151.763L1100.87 -6.12598C1093.48 1.36633 1084.69 7.30261 1075.01 11.3376C1065.32 15.3726 1054.94 17.4259 1044.47 17.3783ZM1409.9 -352.317C1409.9 -308.642 1374.8 -273.237 1331.5 -273.237C1288.2 -273.237 1253.1 -308.642 1253.1 -352.317C1253.1 -395.991 1288.2 -431.396 1331.5 -431.396C1374.8 -431.396 1409.9 -395.991 1409.9 -352.317ZM853.036 518.433C837.306 518.346 821.95 513.579 808.893 504.729C795.836 495.878 785.659 483.339 779.637 468.68C773.615 454.021 772.015 437.896 775.038 422.324C778.061 406.753 785.573 392.427 796.632 381.143L1037.49 138.194C1052.52 123.596 1072.63 115.524 1093.5 115.712C1114.36 115.901 1134.32 124.334 1149.09 139.202C1163.86 154.07 1172.26 174.186 1172.48 195.231C1172.71 216.276 1164.75 236.572 1150.3 251.76L909.441 494.709C902.063 502.231 893.279 508.202 883.596 512.274C873.914 516.346 863.527 518.44 853.036 518.433ZM1193.33 115.532C1206.43 124.409 1221.85 129.162 1237.64 129.188C1258.55 129.014 1278.57 120.576 1293.39 105.684L1537.52 -135.508C1552.11 -150.578 1560.25 -170.82 1560.19 -191.883C1560.14 -212.945 1551.89 -233.145 1537.23 -248.139C1522.56 -263.133 1502.65 -271.723 1481.77 -272.062C1460.89 -272.401 1440.72 -264.462 1425.58 -249.953L1181.67 -8.3219C1170.46 2.88403 1162.79 17.196 1159.65 32.7997C1156.51 48.4032 1158.04 64.5957 1164.03 79.3245C1170.03 94.0532 1180.22 106.655 1193.33 115.532ZM660.306 712.616C644.573 712.59 629.2 707.869 616.123 699.046C603.046 690.224 592.85 677.696 586.819 663.04C580.788 648.383 579.192 632.254 582.232 616.685C585.271 601.115 592.811 586.801 603.901 575.546L652.248 527C659.501 518.941 668.301 512.452 678.115 507.926C687.928 503.4 698.551 500.93 709.339 500.668C720.126 500.405 730.855 502.355 740.873 506.398C750.892 510.442 759.992 516.496 767.622 524.192C775.252 531.889 781.254 541.068 785.263 551.173C789.272 561.278 791.205 572.099 790.944 582.981C790.684 593.862 788.236 604.576 783.749 614.475C779.261 624.373 772.828 633.25 764.839 640.566L716.71 689.112C709.321 696.604 700.53 702.54 690.847 706.575C681.164 710.61 670.782 712.664 660.306 712.616ZM598.672 773.682C598.672 817.357 563.571 852.762 520.272 852.762C476.973 852.762 441.872 817.357 441.872 773.682C441.872 730.008 476.973 694.604 520.272 694.604C563.571 694.604 598.672 730.008 598.672 773.682ZM498.495 -44.5675C482.763 -44.5935 467.39 -49.3148 454.313 -58.137C441.236 -66.9592 431.04 -79.4877 425.008 -94.144C418.977 -108.8 417.381 -124.929 420.421 -140.499C423.461 -156.068 431.001 -170.383 442.091 -181.638L636.131 -377.579C651.09 -392.668 671.379 -401.145 692.535 -401.145C713.691 -401.145 733.98 -392.668 748.939 -377.579C763.899 -362.49 772.303 -342.025 772.303 -320.686C772.303 -299.347 763.899 -278.881 748.939 -263.792L554.682 -68.5109C547.37 -60.9457 538.633 -54.9307 528.984 -50.819C519.336 -46.7073 508.97 -44.5818 498.495 -44.5675ZM793.179 -399.276C806.256 -390.453 821.628 -385.732 837.361 -385.706C847.882 -385.706 858.3 -387.802 868.017 -391.873C877.734 -395.944 886.558 -401.911 893.983 -409.43L1086.06 -604.492C1100.48 -619.707 1108.41 -640.02 1108.15 -661.068C1107.88 -682.115 1099.44 -702.218 1084.64 -717.058C1069.84 -731.899 1049.86 -740.294 1029 -740.44C1008.13 -740.585 988.037 -732.471 973.036 -717.838L780.956 -522.776C769.866 -511.521 762.327 -497.207 759.287 -481.637C756.247 -466.067 757.843 -449.939 763.874 -435.282C769.905 -420.626 780.102 -408.098 793.179 -399.276ZM209.292 247.147C193.534 247.121 178.136 242.384 165.046 233.534C151.956 224.685 141.76 212.119 135.747 197.427C129.734 182.734 128.174 166.574 131.263 150.987C134.353 135.401 141.954 121.088 153.105 109.857L297.492 -35.7808C304.83 -43.4969 313.62 -49.6592 323.348 -53.907C333.076 -58.1548 343.546 -60.4027 354.146 -60.5192C364.745 -60.6356 375.262 -58.6182 385.079 -54.5851C394.896 -50.552 403.818 -44.5842 411.32 -37.031C418.823 -29.4778 424.757 -20.491 428.774 -10.5964C432.792 -0.701904 434.812 9.90161 434.717 20.5934C434.622 31.2852 432.414 41.8503 428.221 51.6707C424.029 61.4911 417.936 70.3694 410.301 77.7859L265.696 223.643C258.286 231.106 249.491 237.023 239.813 241.056C230.135 245.089 219.764 247.158 209.292 247.147ZM142.211 313.485C142.211 357.16 107.11 392.565 63.811 392.565C20.512 392.565 -14.5889 357.16 -14.5889 313.485C-14.5889 269.811 20.512 234.406 63.811 234.406C107.11 234.406 142.211 269.811 142.211 313.485Z" fill="url(#paint0_linear)"/>
<defs>
<linearGradient id="paint0_linear" x1="410" y1="46.9997" x2="-160.5" y2="617.5" gradientUnits="userSpaceOnUse">
<stop stop-color="white"/>
<stop offset="1" stop-color="#105E8B"/>
</linearGradient>
</defs>
</svg>
