<svg width="541" height="558" viewBox="0 0 541 558" fill="none" xmlns="http://www.w3.org/2000/svg">
<circle cx="267" cy="272" r="210" stroke="#00AEEF" stroke-width="2" stroke-dasharray="6 6"/>
<g clip-path="url(#clip0)">
<path d="M245 336C268.196 336 287 317.196 287 294C287 270.804 268.196 252 245 252C221.804 252 203 270.804 203 294C203 317.196 221.804 336 245 336Z" fill="#C7E8F5"/>
<path d="M283 290H305C318.254 290 329 279.254 329 266C329 254.106 321 244 309 244C309 234 303 226 291 226H289C283.544 216.152 273.056 210 261 210C243.328 210 229 224.328 229 242C215.746 242 205 252.746 205 266C205 279.254 215.746 290 229 290H251" stroke="#0D4B73" stroke-width="4" stroke-miterlimit="10"/>
<path d="M241 244C241 231.85 251 222 261 222" stroke="#0D4B73" stroke-width="4" stroke-miterlimit="10"/>
<path d="M233 306H219" stroke="#0D4B73" stroke-width="4" stroke-miterlimit="10"/>
<path d="M261 272V298C261 302.418 257.418 306 253 306H249" stroke="#0D4B73" stroke-width="4" stroke-miterlimit="10"/>
<path d="M301 326H313" stroke="#0D4B73" stroke-width="4" stroke-miterlimit="10"/>
<path d="M273 272V318C273 322.418 276.582 326 281 326H285" stroke="#0D4B73" stroke-width="4" stroke-miterlimit="10"/>
<path d="M251 270H283" stroke="#0D4B73" stroke-width="4" stroke-miterlimit="10"/>
<path d="M213 314C217.418 314 221 310.418 221 306C221 301.582 217.418 298 213 298C208.582 298 205 301.582 205 306C205 310.418 208.582 314 213 314Z" stroke="#0D4B73" stroke-width="4" stroke-miterlimit="10"/>
<path d="M241 314C245.418 314 249 310.418 249 306C249 301.582 245.418 298 241 298C236.582 298 233 301.582 233 306C233 310.418 236.582 314 241 314Z" stroke="#0D4B73" stroke-width="4" stroke-miterlimit="10"/>
<path d="M293 334C297.418 334 301 330.418 301 326C301 321.582 297.418 318 293 318C288.582 318 285 321.582 285 326C285 330.418 288.582 334 293 334Z" stroke="#0D4B73" stroke-width="4" stroke-miterlimit="10"/>
<path d="M321 334C325.418 334 329 330.418 329 326C329 321.582 325.418 318 321 318C316.582 318 313 321.582 313 326C313 330.418 316.582 334 321 334Z" stroke="#0D4B73" stroke-width="4" stroke-miterlimit="10"/>
<path d="M287 270H291" stroke="#0D4B73" stroke-width="4" stroke-miterlimit="10"/>
<path d="M295 270H299" stroke="#0D4B73" stroke-width="4" stroke-miterlimit="10"/>
<path d="M303 270H307" stroke="#0D4B73" stroke-width="4" stroke-miterlimit="10"/>
<path d="M227 270H231" stroke="#0D4B73" stroke-width="4" stroke-miterlimit="10"/>
<path d="M235 270H239" stroke="#0D4B73" stroke-width="4" stroke-miterlimit="10"/>
<path d="M243 270H247" stroke="#0D4B73" stroke-width="4" stroke-miterlimit="10"/>
</g>
<g filter="url(#filter0_d)">
<rect x="8" y="216" width="112" height="112" rx="56" fill="white"/>
<path d="M76.5 258.25C76.5 272.746 64.7487 284.5 50.25 284.5C35.7512 284.5 24 272.746 24 258.25C24 243.745 35.7512 232 50.25 232C64.7487 232 76.5 243.745 76.5 258.25Z" fill="#C7E8F5"/>
<path d="M24 290.75H104" stroke="#0D4B73" stroke-width="2.50746" stroke-miterlimit="10"/>
<path d="M104 285.75C82.75 285.75 81.5 238.25 64 238.25C46.5 238.25 45.25 285.75 24 285.75" stroke="#0D4B73" stroke-width="2.50746" stroke-miterlimit="10"/>
<path d="M47.75 257V290.75" stroke="#0D4B73" stroke-width="2.50746" stroke-miterlimit="10"/>
<path d="M64 238.25V290.75" stroke="#0D4B73" stroke-width="2.50746" stroke-miterlimit="10"/>
<path d="M42.75 268.25V290.75" stroke="#0D4B73" stroke-width="2.50746" stroke-miterlimit="10"/>
<path d="M37.75 277V290.75" stroke="#0D4B73" stroke-width="2.50746" stroke-miterlimit="10"/>
<path d="M32.75 283.25V290.75" stroke="#0D4B73" stroke-width="2.50746" stroke-miterlimit="10"/>
<path d="M27.75 285.75V290.75" stroke="#0D4B73" stroke-width="2.50746" stroke-miterlimit="10"/>
<path d="M80.25 257V290.75" stroke="#0D4B73" stroke-width="2.50746" stroke-miterlimit="10"/>
<path d="M85.25 268.25V290.75" stroke="#0D4B73" stroke-width="2.50746" stroke-miterlimit="10"/>
<path d="M90.25 277V290.75" stroke="#0D4B73" stroke-width="2.50746" stroke-miterlimit="10"/>
<path d="M95.25 283.25V290.75" stroke="#0D4B73" stroke-width="2.50746" stroke-miterlimit="10"/>
<path d="M100.25 285.75V290.75" stroke="#0D4B73" stroke-width="2.50746" stroke-miterlimit="10"/>
<path d="M47.75 257H34" stroke="#0D4B73" stroke-width="2.50746" stroke-miterlimit="10"/>
<path d="M31.5 257H29" stroke="#0D4B73" stroke-width="2.50746" stroke-miterlimit="10"/>
<path d="M26.5 257H24" stroke="#0D4B73" stroke-width="2.50746" stroke-miterlimit="10"/>
<path d="M64 238.25H94" stroke="#0D4B73" stroke-width="2.50746" stroke-miterlimit="10"/>
<path d="M96.5 238.25H99" stroke="#0D4B73" stroke-width="2.50746" stroke-miterlimit="10"/>
<path d="M101.5 238.25H104" stroke="#0D4B73" stroke-width="2.50746" stroke-miterlimit="10"/>
<path d="M25.25 295.75H27.75" stroke="#0D4B73" stroke-width="2.50746" stroke-miterlimit="10"/>
<path d="M30.25 295.75H32.75" stroke="#0D4B73" stroke-width="2.50746" stroke-miterlimit="10"/>
<path d="M35.25 295.75H37.75" stroke="#0D4B73" stroke-width="2.50746" stroke-miterlimit="10"/>
<path d="M40.25 295.75H42.75" stroke="#0D4B73" stroke-width="2.50746" stroke-miterlimit="10"/>
<path d="M45.25 295.75H47.75" stroke="#0D4B73" stroke-width="2.50746" stroke-miterlimit="10"/>
<path d="M50.25 295.75H52.75" stroke="#0D4B73" stroke-width="2.50746" stroke-miterlimit="10"/>
<path d="M55.25 295.75H57.75" stroke="#0D4B73" stroke-width="2.50746" stroke-miterlimit="10"/>
<path d="M60.25 295.75H62.75" stroke="#0D4B73" stroke-width="2.50746" stroke-miterlimit="10"/>
<path d="M65.25 295.75H67.75" stroke="#0D4B73" stroke-width="2.50746" stroke-miterlimit="10"/>
<path d="M70.25 295.75H72.75" stroke="#0D4B73" stroke-width="2.50746" stroke-miterlimit="10"/>
<path d="M75.25 295.75H77.75" stroke="#0D4B73" stroke-width="2.50746" stroke-miterlimit="10"/>
<path d="M80.25 295.75H82.75" stroke="#0D4B73" stroke-width="2.50746" stroke-miterlimit="10"/>
<path d="M35.25 300.75H37.75" stroke="#0D4B73" stroke-width="2.50746" stroke-miterlimit="10"/>
<path d="M40.25 300.75H42.75" stroke="#0D4B73" stroke-width="2.50746" stroke-miterlimit="10"/>
<path d="M45.25 300.75H47.75" stroke="#0D4B73" stroke-width="2.50746" stroke-miterlimit="10"/>
<path d="M50.25 300.75H52.75" stroke="#0D4B73" stroke-width="2.50746" stroke-miterlimit="10"/>
<path d="M55.25 300.75H57.75" stroke="#0D4B73" stroke-width="2.50746" stroke-miterlimit="10"/>
<path d="M60.25 300.75H62.75" stroke="#0D4B73" stroke-width="2.50746" stroke-miterlimit="10"/>
<path d="M65.25 300.75H67.75" stroke="#0D4B73" stroke-width="2.50746" stroke-miterlimit="10"/>
<path d="M70.25 300.75H72.75" stroke="#0D4B73" stroke-width="2.50746" stroke-miterlimit="10"/>
<path d="M75.25 300.75H77.75" stroke="#0D4B73" stroke-width="2.50746" stroke-miterlimit="10"/>
<path d="M80.25 300.75H82.75" stroke="#0D4B73" stroke-width="2.50746" stroke-miterlimit="10"/>
<path d="M45.25 305.75H47.75" stroke="#0D4B73" stroke-width="2.50746" stroke-miterlimit="10"/>
<path d="M50.25 305.75H52.75" stroke="#0D4B73" stroke-width="2.50746" stroke-miterlimit="10"/>
<path d="M55.25 305.75H57.75" stroke="#0D4B73" stroke-width="2.50746" stroke-miterlimit="10"/>
<path d="M60.25 305.75H62.75" stroke="#0D4B73" stroke-width="2.50746" stroke-miterlimit="10"/>
<path d="M65.25 305.75H67.75" stroke="#0D4B73" stroke-width="2.50746" stroke-miterlimit="10"/>
<path d="M70.25 305.75H72.75" stroke="#0D4B73" stroke-width="2.50746" stroke-miterlimit="10"/>
<path d="M75.25 305.75H77.75" stroke="#0D4B73" stroke-width="2.50746" stroke-miterlimit="10"/>
<path d="M80.25 305.75H82.75" stroke="#0D4B73" stroke-width="2.50746" stroke-miterlimit="10"/>
<path d="M55.25 310.75H57.75" stroke="#0D4B73" stroke-width="2.50746" stroke-miterlimit="10"/>
<path d="M60.25 310.75H62.75" stroke="#0D4B73" stroke-width="2.50746" stroke-miterlimit="10"/>
<path d="M65.25 310.75H67.75" stroke="#0D4B73" stroke-width="2.50746" stroke-miterlimit="10"/>
<path d="M70.25 310.75H72.75" stroke="#0D4B73" stroke-width="2.50746" stroke-miterlimit="10"/>
<path d="M85.25 295.75H87.75" stroke="#0D4B73" stroke-width="2.50746" stroke-miterlimit="10"/>
<path d="M90.25 295.75H92.75" stroke="#0D4B73" stroke-width="2.50746" stroke-miterlimit="10"/>
<path d="M95.25 295.75H97.75" stroke="#0D4B73" stroke-width="2.50746" stroke-miterlimit="10"/>
<path d="M100.25 295.75H102.75" stroke="#0D4B73" stroke-width="2.50746" stroke-miterlimit="10"/>
<path d="M85.25 300.75H87.75" stroke="#0D4B73" stroke-width="2.50746" stroke-miterlimit="10"/>
<path d="M90.25 300.75H92.75" stroke="#0D4B73" stroke-width="2.50746" stroke-miterlimit="10"/>
</g>
<g filter="url(#filter1_d)">
<rect x="201" y="416" width="132" height="132" rx="66" fill="white"/>
<path d="M254.25 495.5C268.747 495.5 280.5 483.747 280.5 469.25C280.5 454.753 268.747 443 254.25 443C239.753 443 228 454.753 228 469.25C228 483.747 239.753 495.5 254.25 495.5Z" fill="#C7E8F5"/>
<path d="M290.5 499.25C299.475 499.25 306.75 491.975 306.75 483C306.75 474.025 299.475 466.75 290.5 466.75C281.525 466.75 274.25 474.025 274.25 483C274.25 491.975 281.525 499.25 290.5 499.25Z" stroke="#0D4B73" stroke-width="2.50746" stroke-miterlimit="10"/>
<path d="M295.5 498V516.75C295.5 519.511 293.261 521.75 290.5 521.75C287.739 521.75 285.5 519.511 285.5 516.75V503" stroke="#0D4B73" stroke-width="2.50746" stroke-miterlimit="10"/>
<path d="M290.5 513V515.5" stroke="#0D4B73" stroke-width="2.50746" stroke-miterlimit="10"/>
<path d="M290.5 508V510.5" stroke="#0D4B73" stroke-width="2.50746" stroke-miterlimit="10"/>
<path d="M290.5 503V505.5" stroke="#0D4B73" stroke-width="2.50746" stroke-miterlimit="10"/>
<path d="M298 478L288 488L283 483" stroke="#0D4B73" stroke-width="2.50746" stroke-miterlimit="10" stroke-linejoin="round"/>
<path d="M281.75 514.25H229.25V444.25H306.75V468" stroke="#0D4B73" stroke-width="2.50746" stroke-miterlimit="10"/>
<path d="M306.75 498V514.25H299.25" stroke="#0D4B73" stroke-width="2.50746" stroke-miterlimit="10"/>
<path d="M229.25 454.25H306.75" stroke="#0D4B73" stroke-width="2.50746" stroke-miterlimit="10"/>
<path d="M233 449.25H235.5" stroke="#0D4B73" stroke-width="2.50746" stroke-miterlimit="10"/>
<path d="M238 449.25H240.5" stroke="#0D4B73" stroke-width="2.50746" stroke-miterlimit="10"/>
<path d="M243 449.25H245.5" stroke="#0D4B73" stroke-width="2.50746" stroke-miterlimit="10"/>
<path d="M249.25 444.25V454.25" stroke="#0D4B73" stroke-width="2.50746" stroke-miterlimit="10"/>
<path d="M253 449.25H303" stroke="#0D4B73" stroke-width="2.50746" stroke-miterlimit="10"/>
<path d="M281.75 509.25H234.25V459.25H301.75V465.5" stroke="#0D4B73" stroke-width="2.50746" stroke-miterlimit="10"/>
<path d="M256.75 466.75H241.75V481.75H256.75V466.75Z" stroke="#0D4B73" stroke-width="2.50746" stroke-miterlimit="10"/>
<path d="M270.5 481.75H261.75V466.75H278" stroke="#0D4B73" stroke-width="2.50746" stroke-miterlimit="10"/>
<path d="M240.5 486.75H258" stroke="#0D4B73" stroke-width="2.50746" stroke-miterlimit="10"/>
<path d="M240.5 491.75H258" stroke="#0D4B73" stroke-width="2.50746" stroke-miterlimit="10"/>
<path d="M240.5 496.75H258" stroke="#0D4B73" stroke-width="2.50746" stroke-miterlimit="10"/>
<path d="M240.5 501.75H258" stroke="#0D4B73" stroke-width="2.50746" stroke-miterlimit="10"/>
<path d="M260.5 486.75H270.5" stroke="#0D4B73" stroke-width="2.50746" stroke-miterlimit="10"/>
<path d="M260.5 491.75H270.5" stroke="#0D4B73" stroke-width="2.50746" stroke-miterlimit="10"/>
<path d="M260.5 496.75H274.25" stroke="#0D4B73" stroke-width="2.50746" stroke-miterlimit="10"/>
<path d="M260.5 501.75H278" stroke="#0D4B73" stroke-width="2.50746" stroke-miterlimit="10"/>
</g>
<g filter="url(#filter2_d)">
<rect x="421" y="216" width="112" height="112" rx="56" fill="white"/>
<path d="M463.25 284.5C477.747 284.5 489.5 272.747 489.5 258.25C489.5 243.753 477.747 232 463.25 232C448.753 232 437 243.753 437 258.25C437 272.747 448.753 284.5 463.25 284.5Z" fill="#C7E8F5"/>
<path d="M460.75 277V262C460.75 259.93 462.43 258.25 464.5 258.25H465.75C467.82 258.25 469.5 259.93 469.5 262V277" stroke="#0D4B73" stroke-width="2.50746" stroke-miterlimit="10"/>
<path d="M460.75 269.5H469.5" stroke="#0D4B73" stroke-width="2.50746" stroke-miterlimit="10"/>
<path d="M474.5 277V258.25H479.5C481.57 258.25 483.25 259.93 483.25 262V265.75C483.25 267.82 481.57 269.5 479.5 269.5H474.5" stroke="#0D4B73" stroke-width="2.50746" stroke-miterlimit="10"/>
<path d="M490.75 258.25V275.75" stroke="#0D4B73" stroke-width="2.50746" stroke-miterlimit="10"/>
<path d="M487 258.25H494.5" stroke="#0D4B73" stroke-width="2.50746" stroke-miterlimit="10"/>
<path d="M487 275.75H494.5" stroke="#0D4B73" stroke-width="2.50746" stroke-miterlimit="10"/>
<path d="M515.75 244.5C515.75 242.429 514.07 240.75 512 240.75H442C439.93 240.75 438.25 242.429 438.25 244.5V294.5C438.25 296.571 439.93 298.25 442 298.25H512C514.07 298.25 515.75 296.571 515.75 294.5V244.5Z" stroke="#0D4B73" stroke-width="2.50746" stroke-miterlimit="10"/>
<path d="M484.5 298.25L487 310.75" stroke="#0D4B73" stroke-width="2.50746" stroke-miterlimit="10"/>
<path d="M467 310.75L469.5 298.25" stroke="#0D4B73" stroke-width="2.50746" stroke-miterlimit="10"/>
<path d="M460.75 310.75H493.25" stroke="#0D4B73" stroke-width="2.50746" stroke-miterlimit="10"/>
<path d="M475.75 293.25H478.25" stroke="#0D4B73" stroke-width="2.50746" stroke-miterlimit="10"/>
<path d="M512 267H498.25" stroke="#0D4B73" stroke-width="2.50746" stroke-miterlimit="10"/>
<path d="M512 257H507L502 262H498.25" stroke="#0D4B73" stroke-width="2.50746" stroke-miterlimit="10"/>
<path d="M498.25 272H502L507 277H512" stroke="#0D4B73" stroke-width="2.50746" stroke-miterlimit="10"/>
<path d="M442 267H455.75" stroke="#0D4B73" stroke-width="2.50746" stroke-miterlimit="10"/>
<path d="M442 257H447L452 262H455.75" stroke="#0D4B73" stroke-width="2.50746" stroke-miterlimit="10"/>
<path d="M455.75 272H452L447 277H442" stroke="#0D4B73" stroke-width="2.50746" stroke-miterlimit="10"/>
<path d="M443.25 253.25V245.75H510.75V253.25" stroke="#0D4B73" stroke-width="2.50746" stroke-miterlimit="10"/>
<path d="M510.75 280.75V288.25H443.25V280.75" stroke="#0D4B73" stroke-width="2.50746" stroke-miterlimit="10"/>
<path d="M442 262H444.5" stroke="#0D4B73" stroke-width="2.50746" stroke-miterlimit="10"/>
<path d="M442 272H444.5" stroke="#0D4B73" stroke-width="2.50746" stroke-miterlimit="10"/>
<path d="M509.5 262H512" stroke="#0D4B73" stroke-width="2.50746" stroke-miterlimit="10"/>
<path d="M509.5 272H512" stroke="#0D4B73" stroke-width="2.50746" stroke-miterlimit="10"/>
<path d="M498.25 279.5C498.25 280.191 497.691 280.75 497 280.75H457C456.309 280.75 455.75 280.191 455.75 279.5V254.5C455.75 253.809 456.309 253.25 457 253.25H497C497.691 253.25 498.25 253.809 498.25 254.5V279.5Z" stroke="#0D4B73" stroke-width="2.50746" stroke-miterlimit="10"/>
</g>
<g filter="url(#filter3_d)">
<rect x="211" y="6" width="112" height="112" rx="56" fill="white"/>
<path d="M253.25 102C267.747 102 279.5 90.2475 279.5 75.75C279.5 61.2525 267.747 49.5 253.25 49.5C238.753 49.5 227 61.2525 227 75.75C227 90.2475 238.753 102 253.25 102Z" fill="#C7E8F5"/>
<path d="M267 85.75V93.25" stroke="#0D4B73" stroke-width="2.5" stroke-miterlimit="10"/>
<path d="M267 100.75C269.071 100.75 270.75 99.0711 270.75 97C270.75 94.9289 269.071 93.25 267 93.25C264.929 93.25 263.25 94.9289 263.25 97C263.25 99.0711 264.929 100.75 267 100.75Z" stroke="#0D4B73" stroke-width="2.5" stroke-miterlimit="10"/>
<path d="M263.25 97H227" stroke="#0D4B73" stroke-width="2.5" stroke-miterlimit="10"/>
<path d="M307 97H270.75" stroke="#0D4B73" stroke-width="2.5" stroke-miterlimit="10"/>
<path d="M267 40.75C282.878 40.75 295.75 36.8325 295.75 32C295.75 27.1675 282.878 23.25 267 23.25C251.122 23.25 238.25 27.1675 238.25 32C238.25 36.8325 251.122 40.75 267 40.75Z" stroke="#0D4B73" stroke-width="2.5" stroke-miterlimit="10"/>
<path d="M295.75 38.25V47C295.75 51.8325 282.879 55.75 267 55.75C251.121 55.75 238.25 51.8325 238.25 47V38.25" stroke="#0D4B73" stroke-width="2.5" stroke-miterlimit="10"/>
<path d="M295.75 53.25V62C295.75 66.8325 282.879 70.75 267 70.75C251.121 70.75 238.25 66.8325 238.25 62V53.25" stroke="#0D4B73" stroke-width="2.5" stroke-miterlimit="10"/>
<path d="M295.75 68.25V77C295.75 81.8325 282.879 85.75 267 85.75C251.121 85.75 238.25 81.8325 238.25 77V68.25" stroke="#0D4B73" stroke-width="2.5" stroke-miterlimit="10"/>
<path d="M265.75 78.25H268.25" stroke="#0D4B73" stroke-width="2.5" stroke-miterlimit="10"/>
<path d="M260.75 78.25H263.25" stroke="#0D4B73" stroke-width="2.5" stroke-miterlimit="10"/>
<path d="M270.75 78.25H273.25" stroke="#0D4B73" stroke-width="2.5" stroke-miterlimit="10"/>
<path d="M265.75 63.25H268.25" stroke="#0D4B73" stroke-width="2.5" stroke-miterlimit="10"/>
<path d="M260.75 63.25H263.25" stroke="#0D4B73" stroke-width="2.5" stroke-miterlimit="10"/>
<path d="M270.75 63.25H273.25" stroke="#0D4B73" stroke-width="2.5" stroke-miterlimit="10"/>
<path d="M265.75 48.25H268.25" stroke="#0D4B73" stroke-width="2.5" stroke-miterlimit="10"/>
<path d="M260.75 48.25H263.25" stroke="#0D4B73" stroke-width="2.5" stroke-miterlimit="10"/>
<path d="M270.75 48.25H273.25" stroke="#0D4B73" stroke-width="2.5" stroke-miterlimit="10"/>
</g>
<defs>
<filter id="filter0_d" x="0" y="210" width="128" height="128" filterUnits="userSpaceOnUse" color-interpolation-filters="sRGB">
<feFlood flood-opacity="0" result="BackgroundImageFix"/>
<feColorMatrix in="SourceAlpha" type="matrix" values="0 0 0 0 0 0 0 0 0 0 0 0 0 0 0 0 0 0 127 0"/>
<feOffset dy="2"/>
<feGaussianBlur stdDeviation="4"/>
<feColorMatrix type="matrix" values="0 0 0 0 0.0494791 0 0 0 0 0.399306 0 0 0 0 0.625 0 0 0 0.11 0"/>
<feBlend mode="normal" in2="BackgroundImageFix" result="effect1_dropShadow"/>
<feBlend mode="normal" in="SourceGraphic" in2="effect1_dropShadow" result="shape"/>
</filter>
<filter id="filter1_d" x="193" y="410" width="148" height="148" filterUnits="userSpaceOnUse" color-interpolation-filters="sRGB">
<feFlood flood-opacity="0" result="BackgroundImageFix"/>
<feColorMatrix in="SourceAlpha" type="matrix" values="0 0 0 0 0 0 0 0 0 0 0 0 0 0 0 0 0 0 127 0"/>
<feOffset dy="2"/>
<feGaussianBlur stdDeviation="4"/>
<feColorMatrix type="matrix" values="0 0 0 0 0.0494791 0 0 0 0 0.399306 0 0 0 0 0.625 0 0 0 0.11 0"/>
<feBlend mode="normal" in2="BackgroundImageFix" result="effect1_dropShadow"/>
<feBlend mode="normal" in="SourceGraphic" in2="effect1_dropShadow" result="shape"/>
</filter>
<filter id="filter2_d" x="413" y="210" width="128" height="128" filterUnits="userSpaceOnUse" color-interpolation-filters="sRGB">
<feFlood flood-opacity="0" result="BackgroundImageFix"/>
<feColorMatrix in="SourceAlpha" type="matrix" values="0 0 0 0 0 0 0 0 0 0 0 0 0 0 0 0 0 0 127 0"/>
<feOffset dy="2"/>
<feGaussianBlur stdDeviation="4"/>
<feColorMatrix type="matrix" values="0 0 0 0 0.0494791 0 0 0 0 0.399306 0 0 0 0 0.625 0 0 0 0.11 0"/>
<feBlend mode="normal" in2="BackgroundImageFix" result="effect1_dropShadow"/>
<feBlend mode="normal" in="SourceGraphic" in2="effect1_dropShadow" result="shape"/>
</filter>
<filter id="filter3_d" x="203" y="0" width="128" height="128" filterUnits="userSpaceOnUse" color-interpolation-filters="sRGB">
<feFlood flood-opacity="0" result="BackgroundImageFix"/>
<feColorMatrix in="SourceAlpha" type="matrix" values="0 0 0 0 0 0 0 0 0 0 0 0 0 0 0 0 0 0 127 0"/>
<feOffset dy="2"/>
<feGaussianBlur stdDeviation="4"/>
<feColorMatrix type="matrix" values="0 0 0 0 0.0494791 0 0 0 0 0.399306 0 0 0 0 0.625 0 0 0 0.11 0"/>
<feBlend mode="normal" in2="BackgroundImageFix" result="effect1_dropShadow"/>
<feBlend mode="normal" in="SourceGraphic" in2="effect1_dropShadow" result="shape"/>
</filter>
<clipPath id="clip0">
<rect x="203" y="208" width="128" height="128" fill="white"/>
</clipPath>
</defs>
</svg>
