<svg width="404" height="404" viewBox="0 0 404 404" fill="none" xmlns="http://www.w3.org/2000/svg">
<g clip-path="url(#clip0)">
<path opacity="0.3" d="M264.946 132.759C264.946 205.758 205.77 264.947 132.759 264.947C59.7473 264.947 0.571411 205.758 0.571411 132.759C0.571411 59.716 59.7473 0.571533 132.759 0.571533C205.77 0.571533 264.946 59.716 264.946 132.759Z" fill="#457DA1"/>
<path d="M189.411 309.009L145.348 334.188C139.45 337.813 132.759 346.141 132.759 353.072V403.429" stroke="#457DA1" stroke-width="12.5893" stroke-miterlimit="10"/>
<path d="M296.42 227.178V233.473C296.42 240.397 289.722 248.731 283.83 252.357L239.768 277.536" stroke="#457DA1" stroke-width="12.5893" stroke-miterlimit="10"/>
<path d="M132.759 0.571533V50.9287C132.759 57.8528 139.45 66.1869 145.348 69.8126L283.83 151.643C289.722 155.269 296.42 163.603 296.42 170.527V208.295" stroke="#457DA1" stroke-width="12.5893" stroke-miterlimit="10"/>
<path d="M132.759 195.706V233.473C132.759 240.398 139.45 248.732 145.348 252.357L283.83 334.188C289.722 337.813 296.42 346.141 296.42 353.072V403.429" stroke="#457DA1" stroke-width="12.5893" stroke-miterlimit="10"/>
<path d="M189.411 126.465L145.348 151.643C139.45 155.269 132.759 163.603 132.759 170.527V176.822" stroke="#457DA1" stroke-width="12.5893" stroke-miterlimit="10"/>
<path d="M296.42 0.571533V50.9287C296.42 57.8528 289.722 66.1869 283.83 69.8126L239.768 94.9912" stroke="#457DA1" stroke-width="12.5893" stroke-miterlimit="10"/>
<path d="M151.643 44.634H277.536" stroke="#457DA1" stroke-width="12.5893" stroke-miterlimit="10"/>
<path d="M151.643 19.4556H277.536" stroke="#457DA1" stroke-width="12.5893" stroke-miterlimit="10"/>
<path d="M195.705 334.188H208.295" stroke="#457DA1" stroke-width="12.5893" stroke-miterlimit="10"/>
<path d="M220.884 334.188H233.473" stroke="#457DA1" stroke-width="12.5893" stroke-miterlimit="10"/>
<path d="M195.705 252.357H208.295" stroke="#457DA1" stroke-width="12.5893" stroke-miterlimit="10"/>
<path d="M220.884 252.357H233.473" stroke="#457DA1" stroke-width="12.5893" stroke-miterlimit="10"/>
<path d="M195.705 151.643H208.295" stroke="#457DA1" stroke-width="12.5893" stroke-miterlimit="10"/>
<path d="M220.884 151.643H233.473" stroke="#457DA1" stroke-width="12.5893" stroke-miterlimit="10"/>
<path d="M195.705 69.8125H208.295" stroke="#457DA1" stroke-width="12.5893" stroke-miterlimit="10"/>
<path d="M220.884 69.8125H233.473" stroke="#457DA1" stroke-width="12.5893" stroke-miterlimit="10"/>
<path d="M151.643 359.366H277.536" stroke="#457DA1" stroke-width="12.5893" stroke-miterlimit="10"/>
<path d="M151.643 384.544H277.536" stroke="#457DA1" stroke-width="12.5893" stroke-miterlimit="10"/>
<path d="M151.643 202H277.536" stroke="#457DA1" stroke-width="12.5893" stroke-miterlimit="10"/>
<path d="M69.8125 176.822H277.536" stroke="#457DA1" stroke-width="12.5893" stroke-miterlimit="10"/>
<path d="M151.643 227.178H359.366" stroke="#457DA1" stroke-width="12.5893" stroke-miterlimit="10"/>
<path d="M378.25 246.062C388.679 246.062 397.134 237.608 397.134 227.178C397.134 216.749 388.679 208.294 378.25 208.294C367.821 208.294 359.366 216.749 359.366 227.178C359.366 237.608 367.821 246.062 378.25 246.062Z" stroke="#457DA1" stroke-width="12.5893" stroke-miterlimit="10"/>
<path d="M50.9286 195.705C61.3579 195.705 69.8125 187.251 69.8125 176.821C69.8125 166.392 61.3579 157.938 50.9286 157.938C40.4993 157.938 32.0447 166.392 32.0447 176.821C32.0447 187.251 40.4993 195.705 50.9286 195.705Z" stroke="#457DA1" stroke-width="12.5893" stroke-miterlimit="10"/>
<path d="M378.25 32.0444C378.25 44.6274 353.071 44.5771 353.071 57.1601C353.071 69.7619 378.25 69.7619 378.25 82.3701C378.25 94.9783 353.071 94.9783 353.071 107.58" stroke="#457DA1" stroke-width="12.5893" stroke-miterlimit="10"/>
<path d="M88.6964 258.652C88.6964 271.229 63.5178 271.197 63.5178 283.78C63.5178 296.363 88.6964 296.363 88.6964 308.946C88.6964 321.548 63.5178 321.548 63.5178 334.156C63.5178 346.765 88.6964 346.765 88.6964 359.366" stroke="#457DA1" stroke-width="12.5893" stroke-miterlimit="10"/>
<path d="M365.661 290.125H327.893" stroke="#457DA1" stroke-width="12.5893" stroke-miterlimit="10"/>
<path d="M32.0447 246.062V258.652" stroke="#457DA1" stroke-width="12.5893" stroke-miterlimit="10"/>
<path d="M63.5178 63.5181V76.1074" stroke="#457DA1" stroke-width="12.5893" stroke-miterlimit="10"/>
<path d="M88.6964 88.6965V126.464" stroke="#457DA1" stroke-width="12.5893" stroke-miterlimit="10"/>
<path d="M107.58 107.581H69.8125" stroke="#457DA1" stroke-width="12.5893" stroke-miterlimit="10"/>
<path d="M334.188 139.053H321.598" stroke="#457DA1" stroke-width="12.5893" stroke-miterlimit="10"/>
<path d="M390.839 309.009H378.25" stroke="#457DA1" stroke-width="12.5893" stroke-miterlimit="10"/>
<path d="M340.482 359.366C343.959 359.366 346.777 356.548 346.777 353.072C346.777 349.595 343.959 346.777 340.482 346.777C337.006 346.777 334.188 349.595 334.188 353.072C334.188 356.548 337.006 359.366 340.482 359.366Z" stroke="#457DA1" stroke-width="12.5893" stroke-miterlimit="10"/>
</g>
<defs>
<clipPath id="clip0">
<rect x="0.571411" y="0.571533" width="402.857" height="402.857" fill="white"/>
</clipPath>
</defs>
</svg>
