<svg width="81" height="48" fill="none" xmlns="http://www.w3.org/2000/svg">
  <g clip-path="url(#genome_qc_logo_RS_1__clip0)">
    <path d="M15.323 44.858c0 .492.038.984.038 1.477l-.038.075c-.754.227-1.396.455-2.49.455-.642 0-1.095-.114-1.435-.19-.415-.113-1.208-.378-1.811-1.173-.491-.606-.755-1.477-.755-2.46 0-.72.15-1.59.528-2.234.83-1.439 2.151-1.78 3.36-1.78 1.094 0 1.81.303 2.264.493l.037.075c-.075.644-.113.795-.15 1.477l-.076.038c-.49-.341-.981-.644-1.774-.644-1.32 0-2.227.909-2.227 2.612 0 .795.302 2.385 1.925 2.385.302 0 .529-.038.793-.114.037-.984 0-1.211-.076-2.271l.038-.076 1.812-.038.037.076c0 .53-.037 1.06-.037 1.59v.227m11.322 1.892c-.792 0-.98 0-1.66.039l-.076-.076v-1.06c0-.378 0-1.779-.038-2.12-.037-.378-.075-.946-.641-.946-.34 0-.566.19-.793.303 0 1.817.038 2.195.076 3.785l-.076.076c-.792 0-.981 0-1.698.038l-.076-.076c0-.644.038-1.287.038-1.93 0-1.666-.075-2.31-.15-3.18l.075-.076c.755-.114.943-.114 1.698-.303l.113.076-.037.568c.452-.265 1.019-.606 1.622-.606.378 0 .944.076 1.246.606.264.416.264.87.264 1.854v.795c.038.985.038 1.288.076 2.158l.037.076zm6.19-2.725c0-.378 0-2.044-1.434-2.612-.453-.189-.981-.189-1.246-.189-1.773 0-2.755.947-2.755 2.801 0 .644.113 1.325.49 1.855.265.379.756.947 2.19.947 2.189.038 2.755-1.25 2.755-2.802zm-1.774 0c0 .833-.113 1.742-.943 1.742a.788.788 0 01-.566-.227c-.19-.19-.378-.53-.378-1.515 0-.303 0-.946.189-1.287a.858.858 0 01.755-.454c.264 0 .528.151.641.303.264.303.302.908.302 1.438zm10.379 2.725c-.717 0-.943 0-1.698.039l-.075-.076c0-.303.037-1.817.037-2.158v-.568c0-.87-.075-1.438-.68-1.438-.301 0-.528.151-.716.265v1.401c0 1.211.038 1.514.075 2.46l-.075.076c-.68 0-.906 0-1.699.038l-.075-.076c.038-.833.038-1.06.038-2.536 0-.87-.038-1.59-.642-1.59a.944.944 0 00-.68.303c0 1.779.038 2.233.076 3.785l-.075.076c-.83 0-1.057 0-1.699.038l-.038-.076v-1.741c0-2.007-.075-2.574-.15-3.37l.075-.075a42.14 42.14 0 001.736-.303l.076.076v.568c.453-.341.905-.644 1.585-.644.792 0 1.057.417 1.208.644.415-.303.943-.644 1.774-.644.15 0 .867 0 1.245.568.302.416.302 1.06.264 1.741v.757c0 1.136 0 1.401.076 2.347l.037.114zm5.511-1.513c-.378.189-.83.454-1.585.454-.604 0-1.02-.19-1.284-.568-.15-.227-.188-.416-.226-.605l3.283-.076.076-.076c0-.492-.038-1.022-.151-1.514-.34-1.211-1.132-1.439-1.472-1.514-.264-.076-.49-.076-.717-.076-1.585 0-2.642 1.06-2.642 2.801 0 .492.076.984.226 1.325.604 1.363 1.963 1.477 2.68 1.477.83 0 1.208-.152 1.736-.38l.076-.075.075-1.135-.075-.038zm-3.057-1.817c.037-.303.113-.757.49-.985a.76.76 0 01.415-.113c.34 0 .529.19.642.34.151.228.151.455.151.72l-1.698.038zm-22.872.946c0-.492 0-1.06-.151-1.438-.113-.303-.68-1.098-2-.606 0 0-.038 0-.038.038-.038.038 0 .038 0 .038.34.151.566.416.566.946l-1.699.038s-.075-.379.151-.833c.19-.379.642-.946 1.586-1.136.377-.075.453 0 .49-.037 0 0 .038-.038 0-.038 0 0-.038-.038-.113-.038-.151-.038-.528-.152-1.208-.152-1.585 0-2.642 1.098-2.642 2.84 0 .492.076.984.227 1.325.604 1.362 1.962 1.476 2.68 1.476.83 0 1.207-.152 1.736-.379l.075-.075.076-1.136-.076-.038c-.377.19-.83.454-1.585.454-.604 0-1.02-.189-1.246-.568-.15-.227-.188-.416-.226-.605l3.284-.076h.113z" fill="#013A81"/>
    <path d="M7.888 30.02a16.74 16.74 0 01-1.396-.493c-1.51-.644-2.944-1.514-2.906-3.029.037-1.438 1.358-2.347 3.736-2.8 2.604-.53 6.454-.91 8.379-1.893 1.925-.871 1.736-3.067.566-4.127-.113-.113-.189-.189-.264-.151-.076.038-.076.113-.038.227.113.303.227.87-.038 1.325-.943 1.666-6.152 1.628-10.719 2.536-3.736.72-5.283 2.537-5.208 4.467.075 2.044 2.038 3.596 4.756 4.013 1.094.151 2.566.227 3.057.151.15-.038.188-.075.188-.151 0 0-.037-.038-.113-.076z" fill="#0C95D3"/>
    <path d="M2.529 21.237c.868-.303 2.038-.606 4-.909.265-.038.567-.075.718-.113.075 0 .113-.038.113-.076.038-.076 0-.114-.151-.151-.151-.038-.453-.076-.642-.152-2.113-.492-2.415-1.136-2.453-1.78 0-.378.15-.756.604-1.06.604-.415 1.585-.643 2.189-.756 4.076-.87 10.19-.984 10.19-6.511 0-2.196-1.358-3.596-2.566-4.354a5.14 5.14 0 00-1.699-.719v2.158s1.284.87 1.284 2.536c0 1.893-.755 3.937-5.02 4.808-2.68.568-4.605.946-5.963 1.514-1.36.568-2.227 1.666-2.34 2.65-.076.908.15 2.082 1.736 2.915zm13.398 1.59c-.83.378-1.85.719-3.51 1.06-.415.075-.717.113-.868.151-.15.038-.188.076-.15.151a.403.403 0 00.188.114c.189.038.528.114.906.227.943.303 1.547.681 1.887 1.06.34.379.49.87.49 1.4 0 .644-.188 1.212-.603 1.704-.566.606-1.472 1.098-2.793 1.514-.642.19-1.51.379-2.529.455v1.74c2.566-.15 5.095-.756 6.492-1.702 1.623-1.06 2.415-2.461 2.415-4.202 0-1.022-.302-1.931-.868-2.688-.34-.492-.717-.757-1.057-.984z" fill="#013A81"/>
    <path d="M4.756 14.006c.868-.265 3.17-.757 3.17-.757.038 0 .113-.038.113-.075 0-.038 0-.114-.075-.114-.076-.038-.868-.19-1.623-.681-1.02-.682-1.812-1.666-1.774-3.104.075-1.931 1.66-3.142 3.472-3.71 1.66-.492 3.17-.72 4.076-1.325C13.89 3.104 13.7 1.174 12.72.227c-.15-.113-.226-.227-.302-.19-.075.039-.075.115-.037.228.075.227.301.795.037 1.325-.49.946-3.208 1.287-5.246 1.703a14.27 14.27 0 00-2.415.72c-1.284.53-2.152 1.211-2.869 2.082C1.246 6.89.83 8.063.83 9.237c0 2.65 2.038 4.05 3.926 4.77z" fill="#0C95D3"/>
    <path d="M51.82 47.016c1.208.416 1.472.53 2.491.984l.114-.038.415-.454-.038-.076c-.906-.265-1.17-.34-2.302-.719.453-.19.83-.379 1.283-1.022.528-.757.755-1.666.755-2.574 0-.87-.189-2.234-1.17-3.066-.566-.493-1.359-.682-2.038-.682-.227 0-.491.038-.718.076-.566.113-1.358.34-1.924 1.211-.567.795-.68 1.93-.68 2.499 0 2.612 1.51 3.52 2.604 3.672.265.037.491.037.755.037l.453.152zm2-3.861c0 .681-.113 1.59-.603 2.233-.189.265-.68.984-1.963.984-.83 0-1.51-.303-1.962-.984-.491-.681-.604-1.666-.604-2.271 0-1.136.415-2.196 1.056-2.688.302-.227.83-.492 1.586-.492 1.283 0 2.15.72 2.415 2.082.038.379.076.757.076 1.136zm5.7 3.558l-.566.038-.076-.076.038-.492c-.227.227-.717.644-1.736.644-.189 0-.83 0-1.284-.492-.415-.455-.415-1.023-.453-1.515v-2.044c0-.416 0-.643-.037-1.25l.075-.075.604-.038.076.076c-.038.984-.038 1.93-.038 2.915 0 .833.038 1.211.302 1.514.189.227.528.379.906.379.15 0 .264-.038.415-.038.566-.114.868-.379 1.17-.606 0-2.044 0-2.46-.076-4.088l.076-.076c.302 0 .34 0 .604-.038l.075.076c0 .643-.038 1.25-.038 1.893 0 1.325.038 2.082.076 3.255l-.113.038zm5.435-2.726c0-.53-.038-1.21-.491-1.817-.453-.605-1.057-.757-1.698-.757-1.51 0-2.378 1.136-2.378 2.726 0 1.552.906 2.725 2.566 2.725.868 0 1.321-.265 1.736-.492l.038-.113.038-.568-.076-.038c-.226.227-.754.681-1.698.681-.453 0-1.283-.151-1.736-1.097a2.751 2.751 0 01-.227-1.136h3.85l.076-.114zm-1.133-4.656h-.906l-.075.038c-.15.379-.415.984-.642 1.477l.038.075h.49l.076-.038c.378-.681.491-.833 1.02-1.476v-.076zm-2.755 4.202c.038-.227.113-.72.453-1.098.302-.34.755-.53 1.246-.53.264 0 .83 0 1.245.644.227.379.227.681.264.984h-3.208zm5.36-4.883l-.642.114-.075.075c.075.795.075.984.113 2.84 0 .832.037 1.703.037 2.536v2.498l.076.076 1.245-.038c.68-.038 1.51-.076 2.227-.72.529-.454.906-1.249.906-2.081 0-.795-.302-1.553-.868-2.007a2.149 2.149 0 00-1.359-.492c-.189 0-.641.038-1.132.227-.227.076-.302.152-.453.265-.038-1.627 0-1.93.038-3.217l-.113-.076zm.528 7.533h-.49v-3.672c.15-.114.263-.19.49-.303.377-.189.717-.227.944-.227.905 0 1.736.72 1.736 1.969 0 .681-.264 1.438-.944 1.854-.566.341-1.359.379-1.736.379zm8.605-2.196c0-.53-.038-1.21-.49-1.817-.453-.605-1.057-.757-1.699-.757-1.51 0-2.378 1.136-2.378 2.726 0 1.552.906 2.725 2.567 2.725.868 0 1.32-.265 1.736-.492l.038-.113.037-.568-.075-.038c-.226.227-.755.681-1.698.681-.453 0-1.284-.151-1.736-1.097a2.751 2.751 0 01-.227-1.136h3.85l.075-.114zm-3.887-.454c.037-.227.113-.719.453-1.098.302-.34.754-.53 1.245-.53.264 0 .83 0 1.246.644.226.379.226.681.264.984h-3.208zm8.53 2.234l-.076.605-.075.114c-.529.34-1.133.378-1.397.378-1.208 0-2.415-.757-2.415-2.687 0-1.552.868-2.801 2.528-2.801.68 0 1.02.189 1.284.34l.037.076-.075.568-.076.038c-.226-.19-.566-.492-1.207-.492-.491 0-.944.227-1.208.454-.49.454-.642 1.098-.642 1.741 0 1.552.981 2.12 1.812 2.12.566 0 1.019-.227 1.396-.606l.114.152z" fill="#013A81"/>
  </g>
  <defs>
    <clipPath id="genome_qc_logo_RS_1__clip0">
      <path fill="#fff" d="M0 0h80.203v48H0z"/>
    </clipPath>
  </defs>
</svg>
