<svg width="102" height="48" fill="none" xmlns="http://www.w3.org/2000/svg">
  <g clip-path="url(#chujs-logo-color_1__clip0)" fill-rule="evenodd" clip-rule="evenodd" fill="#273777">
    <path d="M39.187 21.688c-2.145 0-3.394-1.476-3.394-3.542 0-2.075 1.299-3.54 3.276-3.54 1.416 0 2.724.678 2.98 2.37h-1.652c-.158-.531-.59-.895-1.309-.895-1.013 0-1.613.885-1.613 2.095 0 1.26.66 2.046 1.702 2.046.698 0 1.18-.364 1.367-.905h1.643c-.266 1.554-1.495 2.37-3 2.37zm9.415-6.984v6.885h-1.564v-2.793h-2.47v2.793h-1.573v-6.885h1.574V17.4h2.469v-2.695h1.564zm7.034 3.954c0 2.145-1.288 3.03-2.882 3.03-1.593 0-2.901-.885-2.901-3.03v-3.954h1.632v4.043c0 .855.443 1.455 1.279 1.455.826 0 1.24-.6 1.24-1.455v-4.043h1.632v3.954zM38.37 30.964c-1.633 0-2.577-1.013-2.577-2.42h1.525c0 .66.364 1.092 1.101 1.092.443 0 .817-.216.817-.649 0-.472-.394-.688-1.26-1.003C36.915 27.59 36 27.059 36 25.909c0-1.299 1.003-2.027 2.282-2.027 1.505 0 2.37.974 2.37 2.135h-1.426c-.04-.463-.344-.817-.934-.817-.433 0-.728.226-.728.59 0 .374.305.6 1.12.935 1.26.511 2.146 1.023 2.146 2.272 0 1.308-1.033 1.968-2.46 1.968zm6.041-2.164l-.511.04c-.748.058-1.072.285-1.072.57 0 .236.196.384.51.384.522 0 1.044-.394 1.073-.994zm1.83.846v1.22h-.276c-.472 0-.954-.138-1.13-.63-.375.443-.955.729-1.732.729-1.082 0-1.78-.522-1.78-1.457 0-1.052.865-1.544 2.183-1.652l.905-.069v-.078c0-.492-.305-.738-.698-.738-.521 0-.728.413-.748.678H41.55c.079-1.052.875-1.8 2.154-1.8 1.18 0 2.144.65 2.144 2.066v1.338c0 .295.108.393.394.393zm.63 1.22h1.486v-4.918H46.87v4.918zm-.187-6.325a.93.93 0 01.945-.925c.502 0 .905.394.905.925 0 .482-.403.915-.905.915-.511 0-.944-.433-.944-.915zm7.722 3.63v2.695h-1.563v-2.46c0-.796-.414-1.18-.964-1.18-.492 0-.954.335-.954 1.171v2.469H49.36v-4.918h1.24l.187.59h.128c.226-.286.58-.689 1.505-.689 1.14 0 1.986.797 1.986 2.322zm2.924 2.794c-.955 0-1.643-.394-1.643-1.712v-2.105h-.974v-1.112h.325c.511 0 .777-.285.777-.679v-.649h1.377v1.24h1.249v1.2h-1.249v1.957c0 .374.167.55.433.55.206 0 .383-.097.481-.147l.286 1.17c-.226.139-.59.287-1.062.287zm2.883-3.188h2.036c-.02-.373-.413-.757-.994-.757-.502 0-.875.256-1.042.758zm3.462 1.466c-.216 1.102-1.23 1.722-2.39 1.722-1.564 0-2.577-1.053-2.577-2.558 0-1.535 1.12-2.558 2.468-2.558 1.318 0 2.637.777 2.45 2.99h-3.463c.109.571.453.915 1.131.915.453 0 .817-.187.965-.511h1.416zm.631-.817h3.541v-1.239h-3.541v1.24zm6.099 1.082c.423 0 .68-.294.68-.895V23.98h1.543v4.712c0 1.446-.895 2.273-2.163 2.273-1.476 0-2.263-.906-2.283-2.244h1.515c.05.453.236.787.708.787zm3.002-.865v-2.695h1.564v2.459c0 .796.393 1.18.944 1.18.492 0 .924-.334.924-1.17v-2.47h1.564v4.919h-1.239l-.187-.59h-.118c-.226.285-.57.689-1.485.689-1.15 0-1.967-.797-1.967-2.322zm7.9 2.322c-1.319 0-2.154-.67-2.233-1.8h1.446c.039.471.423.658.806.658.286 0 .551-.098.551-.354 0-.285-.305-.423-.885-.57-.728-.178-1.77-.472-1.77-1.505 0-.935.835-1.544 1.996-1.544 1.19 0 1.938.668 2.016 1.612h-1.386c-.05-.294-.295-.482-.689-.482-.256 0-.443.109-.443.335 0 .236.227.344.915.531 1.004.266 1.722.709 1.722 1.613 0 1.003-.876 1.506-2.046 1.506zm4.83 0c-.954 0-1.642-.394-1.642-1.712v-2.105h-.974v-1.112h.324c.512 0 .777-.285.777-.679v-.649H86v1.24h1.25v1.2H86v1.957c0 .374.168.55.433.55.207 0 .384-.097.482-.147l.285 1.17c-.226.139-.59.287-1.062.287zm1.801-.099h1.486v-4.918h-1.486v4.918zm-.187-6.325c0-.531.433-.925.945-.925.501 0 .904.394.904.925 0 .482-.403.915-.904.915-.512 0-.945-.433-.945-.915zm7.722 3.629v2.696H93.91v-2.46c0-.796-.413-1.18-.964-1.18-.491 0-.953.335-.953 1.17v2.47h-1.565v-4.919h1.24l.187.591h.128c.226-.286.58-.689 1.505-.689 1.14 0 1.986.797 1.986 2.322zm2.186-.393h2.036c-.02-.373-.413-.757-.994-.757-.501 0-.875.256-1.042.758zm3.462 1.466c-.216 1.101-1.23 1.721-2.39 1.721-1.564 0-2.577-1.052-2.577-2.557 0-1.535 1.121-2.558 2.469-2.558 1.318 0 2.636.777 2.449 2.99h-3.463c.109.571.453.915 1.132.915.452 0 .816-.187.964-.511h1.416zm-62.677 7.996v.578h-2.592v-3.893h.629v3.315h1.963zm2.412-1.101c-.01-.368-.283-.696-.74-.696-.411 0-.7.273-.784.696h1.524zm.534.428h-2.08c.044.495.311.823.84.823.3 0 .573-.133.69-.406h.55c-.139.584-.662.89-1.246.89-.856 0-1.385-.579-1.385-1.457 0-.846.579-1.436 1.34-1.436.735 0 1.364.479 1.291 1.586zm3.292 1.307c-.901 0-1.407-.634-1.407-1.44 0-.824.6-1.453 1.396-1.453.684 0 1.224.44 1.285 1.074h-.573c-.05-.29-.29-.562-.723-.562-.49 0-.813.395-.813.94 0 .545.279.94.83.94.378 0 .628-.222.712-.517h.578c-.083.6-.6 1.018-1.285 1.018zm3.758-1.735c-.011-.368-.284-.696-.74-.696-.412 0-.7.273-.784.696h1.524zm.534.428h-2.08c.044.495.311.823.84.823.3 0 .572-.133.69-.406h.55c-.14.584-.662.89-1.246.89-.857 0-1.385-.579-1.385-1.457 0-.846.578-1.436 1.34-1.436.735 0 1.363.479 1.29 1.586zm3.042-.378v1.63h-.595v-1.53c0-.529-.279-.779-.657-.779-.322 0-.645.217-.645.756v1.552h-.595v-2.78h.45l.084.344h.056c.116-.167.339-.4.85-.4.596 0 1.052.411 1.052 1.207zm1.645 1.685c-.406 0-.74-.184-.74-.795v-1.575h-.544v-.423h.166c.295 0 .434-.133.434-.389v-.356h.518v.701h.672v.467h-.672v1.519c0 .245.11.345.272.345a.455.455 0 00.245-.078l.139.45a.92.92 0 01-.49.134zm2.542-2.893v.579a1.238 1.238 0 00-.25-.028c-.39 0-.768.267-.768.923v1.363h-.59v-2.78h.451l.089.389h.05a.934.934 0 01.834-.446h.184zm2.37 1.158c-.012-.368-.284-.696-.74-.696-.412 0-.701.273-.785.696h1.524zm.533.428h-2.08c.044.495.311.823.84.823.3 0 .573-.133.69-.406h.55c-.139.584-.662.89-1.246.89-.856 0-1.385-.579-1.385-1.457 0-.846.579-1.436 1.34-1.436.735 0 1.364.479 1.291 1.586zm4.572-.418v1.67h-.585v-1.475c0-.523-.25-.823-.695-.823-.34 0-.667.256-.667.762v1.535h-.601v-3.95h.6v1.492h.056c.134-.162.423-.379.823-.379.662 0 1.069.423 1.069 1.168zm2.781.279c0-.512-.345-.935-.856-.935-.506 0-.846.423-.846.935 0 .511.334.934.851.934.512 0 .851-.417.851-.934zm-2.28-.006c0-.834.612-1.44 1.424-1.44.812 0 1.435.6 1.435 1.446 0 .84-.606 1.446-1.43 1.446-.812 0-1.43-.606-1.43-1.452zm4.352 1.452c-.684 0-1.118-.395-1.129-.963h.556c.006.373.317.512.584.512.256 0 .468-.111.468-.34 0-.26-.268-.377-.612-.477-.406-.117-.907-.306-.907-.818 0-.49.428-.807 1.001-.807.629 0 .996.39 1.018.846h-.54c-.01-.233-.216-.4-.5-.4-.217 0-.406.116-.406.322 0 .223.206.328.579.445.522.156.934.373.934.89 0 .512-.456.79-1.046.79zm3.705-1.446c0-.545-.328-.93-.79-.93s-.773.385-.773.93c0 .55.311.929.773.929.467 0 .79-.379.79-.93zm.568 0c0 .873-.573 1.446-1.297 1.446-.389 0-.684-.161-.834-.428v1.485h-.562v-3.894h.428l.084.367h.061c.156-.217.412-.423.851-.423.712 0 1.269.579 1.269 1.447zm.536 1.39h.572v-2.78h-.572v2.78zm-.095-3.554c0-.211.178-.378.384-.378.206 0 .372.167.372.378a.377.377 0 01-.372.378.387.387 0 01-.384-.378zm2.38 3.61c-.406 0-.74-.184-.74-.795v-1.575h-.545v-.423h.167c.295 0 .434-.133.434-.389v-.356h.517v.701h.674v.467h-.674v1.519c0 .245.112.345.273.345a.453.453 0 00.245-.078l.139.45a.919.919 0 01-.49.134zm2.573-1.196v-.145l-.423.034c-.506.039-.785.211-.785.484 0 .25.206.361.446.361.372 0 .761-.245.761-.734zm.795.667v.473h-.106c-.272 0-.484-.094-.562-.367a1.236 1.236 0 01-.956.423c-.54 0-.951-.267-.951-.79 0-.584.494-.862 1.25-.923l.53-.04v-.066c0-.378-.195-.628-.54-.628-.384 0-.54.277-.573.506h-.545c.05-.534.45-.952 1.112-.952.634 0 1.096.39 1.096 1.113v.985c0 .205.078.266.245.266zm.472.473h.578v-3.95h-.578v3.95zm1.259 0h.573v-2.781h-.573v2.781zm-.095-3.554c0-.212.178-.378.384-.378.206 0 .373.166.373.378a.378.378 0 01-.373.378.387.387 0 01-.384-.378zm3.292 1.875c-.01-.368-.283-.696-.74-.696-.411 0-.7.273-.784.696h1.524zm.534.427h-2.08c.044.496.312.824.84.824.3 0 .573-.133.69-.406h.55c-.138.584-.661.89-1.245.89-.857 0-1.385-.579-1.385-1.458 0-.845.578-1.435 1.34-1.435.734 0 1.363.479 1.29 1.585zm2.158-1.585v.579a1.228 1.228 0 00-.25-.028c-.39 0-.768.267-.768.923v1.363h-.59v-2.781h.45l.09.39h.05a.933.933 0 01.834-.446h.184zm-50.805 7.247v-1.63h.595v1.53c0 .528.273.779.65.779.324 0 .635-.217.635-.757v-1.552h.6v2.781h-.455l-.084-.344h-.05c-.122.166-.34.4-.845.4-.596 0-1.046-.411-1.046-1.207zm5.645-.478v1.63h-.595v-1.53c0-.529-.278-.78-.656-.78-.323 0-.646.218-.646.757v1.552h-.595v-2.78h.45l.084.344h.056c.117-.167.339-.4.85-.4.596 0 1.052.411 1.052 1.207zm.649 1.63h.573v-2.782h-.573v2.781zm-.095-3.555c0-.211.178-.378.384-.378.206 0 .373.167.373.378a.377.377 0 01-.373.378.387.387 0 01-.384-.378zm3.893.773l-.99 2.781h-.823l-.99-2.78h.601l.779 2.263h.056l.773-2.264h.595zm2.278 1.102c-.012-.368-.284-.695-.74-.695-.412 0-.701.272-.785.695h1.525zm.533.428h-2.08c.045.495.311.823.84.823.3 0 .573-.133.69-.406h.55c-.139.584-.661.89-1.246.89-.856 0-1.385-.578-1.385-1.457 0-.846.579-1.435 1.34-1.435.735 0 1.364.478 1.291 1.585zm2.158-1.585v.578a1.234 1.234 0 00-.25-.028c-.39 0-.768.267-.768.924v1.363h-.59v-2.782h.45l.09.39h.05a.933.933 0 01.834-.445h.184zm1.44 2.892c-.684 0-1.118-.395-1.13-.962h.557c.006.372.317.512.584.512.256 0 .467-.112.467-.34 0-.26-.267-.378-.612-.478-.405-.117-.906-.306-.906-.818 0-.49.428-.806 1-.806.63 0 .997.389 1.02.845h-.54c-.012-.233-.217-.4-.501-.4-.217 0-.406.117-.406.322 0 .223.205.328.578.445.523.156.935.373.935.89 0 .512-.456.79-1.046.79zm1.582-.055h.573v-2.782h-.573v2.782zm-.095-3.555c0-.211.178-.378.384-.378.206 0 .373.167.373.378a.377.377 0 01-.373.378.387.387 0 01-.384-.378zm2.38 3.61c-.405 0-.74-.183-.74-.795v-1.575h-.544v-.422h.166c.295 0 .434-.134.434-.39v-.356h.518v.701h.673v.467h-.673v1.52c0 .244.111.344.273.344a.452.452 0 00.244-.078l.14.45a.919.919 0 01-.49.134zm2.573-1.196v-.145l-.423.034c-.506.039-.784.211-.784.484 0 .25.206.361.444.361.373 0 .763-.244.763-.734zm.795.668v.473h-.106c-.272 0-.483-.095-.561-.368a1.237 1.237 0 01-.957.423c-.54 0-.951-.267-.951-.79 0-.584.495-.862 1.251-.923l.529-.04v-.066c0-.378-.195-.628-.54-.628-.383 0-.54.278-.573.506h-.545c.05-.534.45-.951 1.113-.951.634 0 1.096.389 1.096 1.112v.985c0 .205.078.267.244.267zm.462.473h.573v-2.782h-.573v2.782zm-.095-3.555c0-.211.178-.378.384-.378.206 0 .373.167.373.378a.378.378 0 01-.373.378.387.387 0 01-.384-.378zm2.956.718v.578a1.24 1.24 0 00-.25-.028c-.39 0-.768.267-.768.924v1.363h-.59v-2.782h.45l.09.39h.05a.934.934 0 01.834-.445h.184zm2.369 1.157c-.011-.368-.284-.695-.74-.695-.412 0-.701.272-.784.695h1.524zm.534.428h-2.08c.044.495.311.823.84.823.3 0 .572-.133.69-.406h.55c-.14.584-.662.89-1.246.89-.857 0-1.385-.578-1.385-1.457 0-.846.578-1.435 1.34-1.435.735 0 1.363.478 1.29 1.585zm6.028-.417v1.669h-.59v-1.642c0-.45-.244-.662-.55-.662-.289 0-.567.234-.567.68v1.623h-.59v-1.607c0-.467-.25-.701-.54-.701-.278 0-.578.217-.578.673v1.636h-.59v-2.782h.45l.085.345h.05a.892.892 0 01.767-.4c.428 0 .701.278.796.512h.05a.891.891 0 01.84-.507c.567 0 .967.362.967 1.163zm2.614-.011c-.011-.368-.283-.695-.74-.695-.411 0-.7.272-.784.695h1.524zm-.951-1.408l-.573-.75h.634l.345.75h-.406zm1.485 1.836h-2.08c.044.495.311.823.84.823.3 0 .573-.133.69-.406h.55c-.14.584-.662.89-1.246.89-.856 0-1.385-.578-1.385-1.457 0-.846.579-1.435 1.34-1.435.735 0 1.363.478 1.291 1.585zm2.158-1.585v.578a1.235 1.235 0 00-.25-.028c-.39 0-.768.267-.768.924v1.363h-.59v-2.782h.45l.09.39h.05a.933.933 0 01.834-.445h.184zm2.369 1.157c-.012-.368-.284-.695-.74-.695-.412 0-.701.272-.784.695h1.524zm.534.428h-2.08c.044.495.31.823.84.823.3 0 .572-.133.69-.406h.55c-.14.584-.662.89-1.246.89-.857 0-1.385-.578-1.385-1.457 0-.846.578-1.435 1.34-1.435.735 0 1.363.478 1.29 1.585zm.433-.234h2.002v-.489h-2.003v.49zm4.544-.194c-.011-.368-.284-.695-.74-.695-.412 0-.701.272-.785.695h1.525zm.534.428h-2.08c.044.495.31.823.84.823.3 0 .572-.133.689-.406h.55c-.138.584-.661.89-1.245.89-.857 0-1.385-.578-1.385-1.457 0-.846.578-1.435 1.34-1.435.734 0 1.363.478 1.29 1.585zm3.042-.378v1.63h-.596v-1.53c0-.529-.278-.779-.656-.779-.323 0-.645.217-.645.756v1.553h-.595v-2.782h.45l.084.345h.055c.117-.167.34-.4.851-.4.596 0 1.052.411 1.052 1.207zM90 40.597h.711v.467H90v2.315h-.567v-2.315h-.511v-.467h.51v-.34c0-.527.34-.828.785-.828.317 0 .529.128.601.2l-.183.44a.497.497 0 00-.323-.134c-.195 0-.312.128-.312.378v.284zm2.802 1.64v-.144l-.423.034c-.506.039-.784.211-.784.484 0 .25.206.361.445.361.373 0 .762-.244.762-.734zm.795.669v.473h-.105c-.273 0-.484-.095-.562-.368a1.237 1.237 0 01-.957.423c-.54 0-.951-.267-.951-.79 0-.584.495-.862 1.252-.923l.528-.04v-.066c0-.378-.195-.628-.54-.628-.383 0-.54.278-.572.506h-.546c.05-.534.45-.951 1.113-.951.634 0 1.096.389 1.096 1.112v.985c0 .205.077.267.244.267zm2.958-1.157v1.63h-.595v-1.53c0-.529-.278-.779-.656-.779-.323 0-.646.217-.646.756v1.553h-.595v-2.782h.45l.084.345h.056c.117-.167.34-.4.851-.4.595 0 1.051.411 1.051 1.207zm1.646 1.685c-.406 0-.74-.183-.74-.795v-1.575h-.545v-.422h.167c.295 0 .434-.134.434-.39v-.356h.517v.701h.673v.467h-.673v1.52c0 .244.112.344.273.344a.454.454 0 00.245-.078l.138.45a.918.918 0 01-.489.134zM18.145 7.972c.278 0 .57-.027.872-.08 1.169-.206 2.306-.79 3.119-1.604 2.712-2.712 1.637-4.637.755-5.543-.467-.48-1.146-.736-1.965-.741-1.328-.016-2.828.647-3.893 1.711-1.821 1.821-2.25 4.245-.978 5.517.484.484 1.22.74 2.09.74zm-.844 8.648c1.095 0 2.341-.4 3.065-1.124 1.351-1.35 1.548-3.293.449-4.424-1.011-1.039-3.85-.185-5.03.88-.883.798-1.085 1.605-1.099 2.142-.018.709.276 1.42.805 1.949.393.393 1.066.577 1.81.577z"/>
    <path d="M11.073 22.161c2.732-.41 3.62-.953 4.042-1.196.604-.347 1.768-1.05 1.432-2.024-.238-.69-1.073-.693-2.541-.483-1.48.211-3.514.593-5.64.508-1.062-.043-2.904-.533-3.022-2.064-.04-.509.028-1.236.658-2.063 1.885-2.472 4.55-3.079 6.22-3.951.567-.297.942-.493 1.172-.69.745-.64 1.007-1.808.636-2.523-.243-.469-.93-1.11-2.799-.638-3.26.823-7.533 2.54-9.837 6.081C-.077 15.38.056 17.407.516 18.47c1.046 2.415 3.796 3.49 5.446 3.684 1.249.148 3.173.298 5.11.007z"/>
    <path d="M31.507 12.979a7.817 7.817 0 00-2.81-5.108c-1.432-1.188-3.726-1.337-4.53-.583-.552.517-.588 1.293-.093 1.977 1.728 2.387 2.366 4.418 2.107 6.032-.357 2.223-1.438 3.83-5.166 5.298-1.158.456-2.644.871-3.953 1.246-1.198.342-2.232.638-2.882.907-.733.302-1.158.968-1.01 1.582.11.463.522.984 1.814.984.136 0 .283-.006.44-.018 2.02-.16 7.92-1.01 10.925-3.006 5.202-3.454 5.488-6.64 5.158-9.311zm-19.099 26.15c-.052-3.748.412-8.04-.436-9.904-.651-1.432-2.772-2.446-4.206-2.126-.537.119-1.785.618-1.763 2.66C6.036 32.8 7.567 41.476 8.272 44.2c.436 1.688 1.307 3.07 2.26 3.122.024.002.05.002.076.002.354 0 .684-.132 1.136-.89.864-1.45.69-5.45.665-7.305zm11.91 2.164c-.502-3.171-1.406-7.532-2.273-9.855-.828-2.218-1.614-3.916-3.801-3.647-1.032.129-2.29.395-2.87 1.324-.353.567-.388 1.273-.103 2.099 1.915 5.557 5.51 14.452 7.143 15.895.206.181.738.652 1.327.652.17 0 .346-.04.52-.137.753-.421.869-1.518.428-4.046-.115-.66-.238-1.44-.372-2.285z"/>
  </g>
  <defs>
    <clipPath id="chujs-logo-color_1__clip0">
      <path fill="#fff" transform="translate(.203)" d="M0 0h101.053v48H0z"/>
    </clipPath>
  </defs>
</svg>
