<svg fill="none" height="558" viewBox="0 0 541 558" width="541" xmlns="http://www.w3.org/2000/svg" xmlns:xlink="http://www.w3.org/1999/xlink"><filter id="a" color-interpolation-filters="sRGB" filterUnits="userSpaceOnUse" height="128" width="128" x="0" y="210"><feFlood flood-opacity="0" result="BackgroundImageFix"/><feColorMatrix in="SourceAlpha" type="matrix" values="0 0 0 0 0 0 0 0 0 0 0 0 0 0 0 0 0 0 127 0"/><feOffset dy="2"/><feGaussianBlur stdDeviation="4"/><feColorMatrix type="matrix" values="0 0 0 0 0.0494791 0 0 0 0 0.399306 0 0 0 0 0.625 0 0 0 0.11 0"/><feBlend in2="BackgroundImageFix" mode="normal" result="effect1_dropShadow"/><feBlend in="SourceGraphic" in2="effect1_dropShadow" mode="normal" result="shape"/></filter><filter id="b" color-interpolation-filters="sRGB" filterUnits="userSpaceOnUse" height="148" width="148" x="193" y="410"><feFlood flood-opacity="0" result="BackgroundImageFix"/><feColorMatrix in="SourceAlpha" type="matrix" values="0 0 0 0 0 0 0 0 0 0 0 0 0 0 0 0 0 0 127 0"/><feOffset dy="2"/><feGaussianBlur stdDeviation="4"/><feColorMatrix type="matrix" values="0 0 0 0 0.0494791 0 0 0 0 0.399306 0 0 0 0 0.625 0 0 0 0.11 0"/><feBlend in2="BackgroundImageFix" mode="normal" result="effect1_dropShadow"/><feBlend in="SourceGraphic" in2="effect1_dropShadow" mode="normal" result="shape"/></filter><filter id="c" color-interpolation-filters="sRGB" filterUnits="userSpaceOnUse" height="128" width="128" x="413" y="210"><feFlood flood-opacity="0" result="BackgroundImageFix"/><feColorMatrix in="SourceAlpha" type="matrix" values="0 0 0 0 0 0 0 0 0 0 0 0 0 0 0 0 0 0 127 0"/><feOffset dy="2"/><feGaussianBlur stdDeviation="4"/><feColorMatrix type="matrix" values="0 0 0 0 0.0494791 0 0 0 0 0.399306 0 0 0 0 0.625 0 0 0 0.11 0"/><feBlend in2="BackgroundImageFix" mode="normal" result="effect1_dropShadow"/><feBlend in="SourceGraphic" in2="effect1_dropShadow" mode="normal" result="shape"/></filter><filter id="d" color-interpolation-filters="sRGB" filterUnits="userSpaceOnUse" height="128" width="128" x="203" y="0"><feFlood flood-opacity="0" result="BackgroundImageFix"/><feColorMatrix in="SourceAlpha" type="matrix" values="0 0 0 0 0 0 0 0 0 0 0 0 0 0 0 0 0 0 127 0"/><feOffset dy="2"/><feGaussianBlur stdDeviation="4"/><feColorMatrix type="matrix" values="0 0 0 0 0.0494791 0 0 0 0 0.399306 0 0 0 0 0.625 0 0 0 0.11 0"/><feBlend in2="BackgroundImageFix" mode="normal" result="effect1_dropShadow"/><feBlend in="SourceGraphic" in2="effect1_dropShadow" mode="normal" result="shape"/></filter><clipPath id="e"><path d="m203 208h128v128h-128z"/></clipPath><circle cx="267" cy="272" r="210" stroke="#00aeef" stroke-dasharray="6 6" stroke-width="2"/><g clip-path="url(#e)"><path d="m245 336c23.196 0 42-18.804 42-42s-18.804-42-42-42-42 18.804-42 42 18.804 42 42 42z" fill="#c7e8f5"/><g stroke="#0d4b73" stroke-miterlimit="10" stroke-width="4"><path d="m283 290h22c13.254 0 24-10.746 24-24 0-11.894-8-22-20-22 0-10-6-18-18-18h-2c-5.456-9.848-15.944-16-28-16-17.672 0-32 14.328-32 32-13.254 0-24 10.746-24 24s10.746 24 24 24h22"/><path d="m241 244c0-12.15 10-22 20-22"/><path d="m233 306h-14"/><path d="m261 272v26c0 4.418-3.582 8-8 8h-4"/><path d="m301 326h12"/><path d="m273 272v46c0 4.418 3.582 8 8 8h4"/><path d="m251 270h32"/><path d="m213 314c4.418 0 8-3.582 8-8s-3.582-8-8-8-8 3.582-8 8 3.582 8 8 8z"/><path d="m241 314c4.418 0 8-3.582 8-8s-3.582-8-8-8-8 3.582-8 8 3.582 8 8 8z"/><path d="m293 334c4.418 0 8-3.582 8-8s-3.582-8-8-8-8 3.582-8 8 3.582 8 8 8z"/><path d="m321 334c4.418 0 8-3.582 8-8s-3.582-8-8-8-8 3.582-8 8 3.582 8 8 8z"/><path d="m287 270h4"/><path d="m295 270h4"/><path d="m303 270h4"/><path d="m227 270h4"/><path d="m235 270h4"/><path d="m243 270h4"/></g></g><g filter="url(#a)"><rect fill="#fff" height="112" rx="56" width="112" x="8" y="216"/><path d="m76.5 258.25c0 14.496-11.7513 26.25-26.25 26.25-14.4988 0-26.25-11.754-26.25-26.25 0-14.505 11.7512-26.25 26.25-26.25 14.4987 0 26.25 11.745 26.25 26.25z" fill="#c7e8f5"/><g stroke="#0d4b73" stroke-miterlimit="10" stroke-width="2.50746"><path d="m24 290.75h80"/><path d="m104 285.75c-21.25 0-22.5-47.5-40-47.5s-18.75 47.5-40 47.5"/><path d="m47.75 257v33.75"/><path d="m64 238.25v52.5"/><path d="m42.75 268.25v22.5"/><path d="m37.75 277v13.75"/><path d="m32.75 283.25v7.5"/><path d="m27.75 285.75v5"/><path d="m80.25 257v33.75"/><path d="m85.25 268.25v22.5"/><path d="m90.25 277v13.75"/><path d="m95.25 283.25v7.5"/><path d="m100.25 285.75v5"/><path d="m47.75 257h-13.75"/><path d="m31.5 257h-2.5"/><path d="m26.5 257h-2.5"/><path d="m64 238.25h30"/><path d="m96.5 238.25h2.5"/><path d="m101.5 238.25h2.5"/><path d="m25.25 295.75h2.5"/><path d="m30.25 295.75h2.5"/><path d="m35.25 295.75h2.5"/><path d="m40.25 295.75h2.5"/><path d="m45.25 295.75h2.5"/><path d="m50.25 295.75h2.5"/><path d="m55.25 295.75h2.5"/><path d="m60.25 295.75h2.5"/><path d="m65.25 295.75h2.5"/><path d="m70.25 295.75h2.5"/><path d="m75.25 295.75h2.5"/><path d="m80.25 295.75h2.5"/><path d="m35.25 300.75h2.5"/><path d="m40.25 300.75h2.5"/><path d="m45.25 300.75h2.5"/><path d="m50.25 300.75h2.5"/><path d="m55.25 300.75h2.5"/><path d="m60.25 300.75h2.5"/><path d="m65.25 300.75h2.5"/><path d="m70.25 300.75h2.5"/><path d="m75.25 300.75h2.5"/><path d="m80.25 300.75h2.5"/><path d="m45.25 305.75h2.5"/><path d="m50.25 305.75h2.5"/><path d="m55.25 305.75h2.5"/><path d="m60.25 305.75h2.5"/><path d="m65.25 305.75h2.5"/><path d="m70.25 305.75h2.5"/><path d="m75.25 305.75h2.5"/><path d="m80.25 305.75h2.5"/><path d="m55.25 310.75h2.5"/><path d="m60.25 310.75h2.5"/><path d="m65.25 310.75h2.5"/><path d="m70.25 310.75h2.5"/><path d="m85.25 295.75h2.5"/><path d="m90.25 295.75h2.5"/><path d="m95.25 295.75h2.5"/><path d="m100.25 295.75h2.5"/><path d="m85.25 300.75h2.5"/><path d="m90.25 300.75h2.5"/></g></g><g filter="url(#b)"><rect fill="#fff" height="132" rx="66" width="132" x="201" y="416"/><path d="m254.25 495.5c14.497 0 26.25-11.753 26.25-26.25s-11.753-26.25-26.25-26.25-26.25 11.753-26.25 26.25 11.753 26.25 26.25 26.25z" fill="#c7e8f5"/><g stroke="#0d4b73" stroke-miterlimit="10" stroke-width="2.50746"><path d="m290.5 499.25c8.975 0 16.25-7.275 16.25-16.25s-7.275-16.25-16.25-16.25-16.25 7.275-16.25 16.25 7.275 16.25 16.25 16.25z"/><path d="m295.5 498v18.75c0 2.761-2.239 5-5 5s-5-2.239-5-5v-13.75"/><path d="m290.5 513v2.5"/><path d="m290.5 508v2.5"/><path d="m290.5 503v2.5"/><path d="m298 478-10 10-5-5" stroke-linejoin="round"/><path d="m281.75 514.25h-52.5v-70h77.5v23.75"/><path d="m306.75 498v16.25h-7.5"/><path d="m229.25 454.25h77.5"/><path d="m233 449.25h2.5"/><path d="m238 449.25h2.5"/><path d="m243 449.25h2.5"/><path d="m249.25 444.25v10"/><path d="m253 449.25h50"/><path d="m281.75 509.25h-47.5v-50h67.5v6.25"/><path d="m256.75 466.75h-15v15h15z"/><path d="m270.5 481.75h-8.75v-15h16.25"/><path d="m240.5 486.75h17.5"/><path d="m240.5 491.75h17.5"/><path d="m240.5 496.75h17.5"/><path d="m240.5 501.75h17.5"/><path d="m260.5 486.75h10"/><path d="m260.5 491.75h10"/><path d="m260.5 496.75h13.75"/><path d="m260.5 501.75h17.5"/></g></g><g filter="url(#c)"><rect fill="#fff" height="112" rx="56" width="112" x="421" y="216"/><path d="m463.25 284.5c14.497 0 26.25-11.753 26.25-26.25s-11.753-26.25-26.25-26.25-26.25 11.753-26.25 26.25 11.753 26.25 26.25 26.25z" fill="#c7e8f5"/><g stroke="#0d4b73" stroke-miterlimit="10" stroke-width="2.50746"><path d="m460.75 277v-15c0-2.07 1.68-3.75 3.75-3.75h1.25c2.07 0 3.75 1.68 3.75 3.75v15"/><path d="m460.75 269.5h8.75"/><path d="m474.5 277v-18.75h5c2.07 0 3.75 1.68 3.75 3.75v3.75c0 2.07-1.68 3.75-3.75 3.75h-5"/><path d="m490.75 258.25v17.5"/><path d="m487 258.25h7.5"/><path d="m487 275.75h7.5"/><path d="m515.75 244.5c0-2.071-1.68-3.75-3.75-3.75h-70c-2.07 0-3.75 1.679-3.75 3.75v50c0 2.071 1.68 3.75 3.75 3.75h70c2.07 0 3.75-1.679 3.75-3.75z"/><path d="m484.5 298.25 2.5 12.5"/><path d="m467 310.75 2.5-12.5"/><path d="m460.75 310.75h32.5"/><path d="m475.75 293.25h2.5"/><path d="m512 267h-13.75"/><path d="m512 257h-5l-5 5h-3.75"/><path d="m498.25 272h3.75l5 5h5"/><path d="m442 267h13.75"/><path d="m442 257h5l5 5h3.75"/><path d="m455.75 272h-3.75l-5 5h-5"/><path d="m443.25 253.25v-7.5h67.5v7.5"/><path d="m510.75 280.75v7.5h-67.5v-7.5"/><path d="m442 262h2.5"/><path d="m442 272h2.5"/><path d="m509.5 262h2.5"/><path d="m509.5 272h2.5"/><path d="m498.25 279.5c0 .691-.559 1.25-1.25 1.25h-40c-.691 0-1.25-.559-1.25-1.25v-25c0-.691.559-1.25 1.25-1.25h40c.691 0 1.25.559 1.25 1.25z"/></g></g><g filter="url(#d)"><rect fill="#fff" height="112" rx="56" width="112" x="211" y="6"/><path d="m253.25 102c14.497 0 26.25-11.7525 26.25-26.25s-11.753-26.25-26.25-26.25-26.25 11.7525-26.25 26.25 11.753 26.25 26.25 26.25z" fill="#c7e8f5"/><g stroke="#0d4b73" stroke-miterlimit="10" stroke-width="2.5"><path d="m267 85.75v7.5"/><path d="m267 100.75c2.071 0 3.75-1.6789 3.75-3.75s-1.679-3.75-3.75-3.75-3.75 1.6789-3.75 3.75 1.679 3.75 3.75 3.75z"/><path d="m263.25 97h-36.25"/><path d="m307 97h-36.25"/><path d="m267 40.75c15.878 0 28.75-3.9175 28.75-8.75s-12.872-8.75-28.75-8.75-28.75 3.9175-28.75 8.75 12.872 8.75 28.75 8.75z"/><path d="m295.75 38.25v8.75c0 4.8325-12.871 8.75-28.75 8.75s-28.75-3.9175-28.75-8.75v-8.75"/><path d="m295.75 53.25v8.75c0 4.8325-12.871 8.75-28.75 8.75s-28.75-3.9175-28.75-8.75v-8.75"/><path d="m295.75 68.25v8.75c0 4.8325-12.871 8.75-28.75 8.75s-28.75-3.9175-28.75-8.75v-8.75"/><path d="m265.75 78.25h2.5"/><path d="m260.75 78.25h2.5"/><path d="m270.75 78.25h2.5"/><path d="m265.75 63.25h2.5"/><path d="m260.75 63.25h2.5"/><path d="m270.75 63.25h2.5"/><path d="m265.75 48.25h2.5"/><path d="m260.75 48.25h2.5"/><path d="m270.75 48.25h2.5"/></g></g></svg>