<svg width="541" height="558" fill="none" xmlns="http://www.w3.org/2000/svg">
  <circle cx="267" cy="272" r="210" stroke="#00AEEF" stroke-width="2" stroke-dasharray="6 6"/>
  <g clip-path="url(#Graphic__clip0)">
    <path d="M245 336c23.196 0 42-18.804 42-42s-18.804-42-42-42-42 18.804-42 42 18.804 42 42 42z" fill="#C2ECFB"/>
    <path d="M283 290h22c13.254 0 24-10.746 24-24 0-11.894-8-22-20-22 0-10-6-18-18-18h-2c-5.456-9.848-15.944-16-28-16-17.672 0-32 14.328-32 32-13.254 0-24 10.746-24 24s10.746 24 24 24h22m-10-46c0-12.15 10-22 20-22m-28 84h-14" stroke="#18486B" stroke-width="4" stroke-miterlimit="10"/>
    <path d="M261 272v26a8 8 0 01-8 8h-4m52 20h12m-40-54v46a8 8 0 008 8h4m-34-56h32m-70 44a8 8 0 100-16 8 8 0 000 16z" stroke="#18486B" stroke-width="4" stroke-miterlimit="10"/>
    <path d="M241 314a8 8 0 100-16 8 8 0 000 16zm52 20a8 8 0 100-16 8 8 0 000 16zm28 0a8 8 0 100-16 8 8 0 000 16zm-34-64h4m4 0h4m4 0h4m-80 0h4m4 0h4m4 0h4" stroke="#18486B" stroke-width="4" stroke-miterlimit="10"/>
  </g>
  <g filter="url(#Graphic__filter0_d)">
    <rect x="8" y="216" width="112" height="112" rx="56" fill="#fff"/>
    <path d="M76.5 258.25c0 14.496-11.751 26.25-26.25 26.25S24 272.746 24 258.25C24 243.745 35.751 232 50.25 232s26.25 11.745 26.25 26.25z" fill="#C2ECFB"/>
    <path d="M24 290.75h80m0-5c-21.25 0-22.5-47.5-40-47.5s-18.75 47.5-40 47.5M47.75 257v33.75M64 238.25v52.5m-21.25-22.5v22.5m-5-13.75v13.75m-5-7.5v7.5m-5-5v5M80.25 257v33.75m5-22.5v22.5m5-13.75v13.75m5-7.5v7.5m5-5v5M47.75 257H34m-2.5 0H29m-2.5 0H24m40-18.75h30m2.5 0H99m2.5 0h2.5m-78.75 57.5h2.5m2.5 0h2.5m2.5 0h2.5m2.5 0h2.5m2.5 0h2.5m2.5 0h2.5m2.5 0h2.5m2.5 0h2.5m2.5 0h2.5m2.5 0h2.5m2.5 0h2.5m2.5 0h2.5m-47.5 5h2.5m2.5 0h2.5m2.5 0h2.5m2.5 0h2.5m2.5 0h2.5m2.5 0h2.5m2.5 0h2.5m2.5 0h2.5m2.5 0h2.5m2.5 0h2.5m-37.5 5h2.5m2.5 0h2.5m2.5 0h2.5m2.5 0h2.5m2.5 0h2.5m2.5 0h2.5m2.5 0h2.5m2.5 0h2.5m-27.5 5h2.5m2.5 0h2.5m2.5 0h2.5m2.5 0h2.5m12.5-15h2.5m2.5 0h2.5m2.5 0h2.5m2.5 0h2.5m-17.5 5h2.5m2.5 0h2.5" stroke="#18486B" stroke-width="2.507" stroke-miterlimit="10"/>
  </g>
  <g filter="url(#Graphic__filter1_d)">
    <rect x="201" y="416" width="132" height="132" rx="66" fill="#fff"/>
    <path d="M254.25 495.5c14.497 0 26.25-11.753 26.25-26.25S268.747 443 254.25 443 228 454.753 228 469.25s11.753 26.25 26.25 26.25z" fill="#C2ECFB"/>
    <path d="M290.5 499.25c8.975 0 16.25-7.275 16.25-16.25s-7.275-16.25-16.25-16.25-16.25 7.275-16.25 16.25 7.275 16.25 16.25 16.25z" stroke="#18486B" stroke-width="2.507" stroke-miterlimit="10"/>
    <path d="M295.5 498v18.75a5 5 0 01-10 0V503m5 10v2.5m0-7.5v2.5m0-7.5v2.5" stroke="#18486B" stroke-width="2.507" stroke-miterlimit="10"/>
    <path d="M298 478l-10 10-5-5" stroke="#18486B" stroke-width="2.507" stroke-miterlimit="10" stroke-linejoin="round"/>
    <path d="M281.75 514.25h-52.5v-70h77.5V468m0 30v16.25h-7.5m-70-60h77.5m-73.75-5h2.5m2.5 0h2.5m2.5 0h2.5m3.75-5v10m3.75-5h50" stroke="#18486B" stroke-width="2.507" stroke-miterlimit="10"/>
    <path d="M281.75 509.25h-47.5v-50h67.5v6.25" stroke="#18486B" stroke-width="2.507" stroke-miterlimit="10"/>
    <path d="M256.75 466.75h-15v15h15v-15zm13.75 15h-8.75v-15H278m-37.5 20H258m-17.5 5H258m-17.5 5H258m-17.5 5H258m2.5-15h10m-10 5h10m-10 5h13.75m-13.75 5H278" stroke="#18486B" stroke-width="2.507" stroke-miterlimit="10"/>
  </g>
  <g filter="url(#Graphic__filter2_d)">
    <rect x="421" y="216" width="112" height="112" rx="56" fill="#fff"/>
    <path d="M463.25 284.5c14.497 0 26.25-11.753 26.25-26.25S477.747 232 463.25 232 437 243.753 437 258.25s11.753 26.25 26.25 26.25z" fill="#C2ECFB"/>
    <path d="M460.75 277v-15c0-2.07 1.68-3.75 3.75-3.75h1.25c2.07 0 3.75 1.68 3.75 3.75v15m-8.75-7.5h8.75m5 7.5v-18.75h5c2.07 0 3.75 1.68 3.75 3.75v3.75c0 2.07-1.68 3.75-3.75 3.75h-5m16.25-11.25v17.5m-3.75-17.5h7.5m-7.5 17.5h7.5" stroke="#18486B" stroke-width="2.507" stroke-miterlimit="10"/>
    <path d="M515.75 244.5a3.75 3.75 0 00-3.75-3.75h-70a3.75 3.75 0 00-3.75 3.75v50a3.75 3.75 0 003.75 3.75h70a3.75 3.75 0 003.75-3.75v-50zm-31.25 53.75l2.5 12.5m-20 0l2.5-12.5m-8.75 12.5h32.5m-17.5-17.5h2.5M512 267h-13.75" stroke="#18486B" stroke-width="2.507" stroke-miterlimit="10"/>
    <path d="M512 257h-5l-5 5h-3.75m0 10H502l5 5h5m-70-10h13.75M442 257h5l5 5h3.75m0 10H452l-5 5h-5m1.25-23.75v-7.5h67.5v7.5m0 27.5v7.5h-67.5v-7.5M442 262h2.5m-2.5 10h2.5m65-10h2.5m-2.5 10h2.5m-13.75 7.5a1.25 1.25 0 01-1.25 1.25h-40a1.25 1.25 0 01-1.25-1.25v-25c0-.691.559-1.25 1.25-1.25h40c.691 0 1.25.559 1.25 1.25v25z" stroke="#18486B" stroke-width="2.507" stroke-miterlimit="10"/>
  </g>
  <g filter="url(#Graphic__filter3_d)">
    <rect x="211" y="6" width="112" height="112" rx="56" fill="#fff"/>
    <path d="M253.25 102c14.497 0 26.25-11.752 26.25-26.25S267.747 49.5 253.25 49.5 227 61.252 227 75.75 238.753 102 253.25 102z" fill="#C2ECFB"/>
    <path d="M267 85.75v7.5m0 7.5a3.75 3.75 0 100-7.5 3.75 3.75 0 000 7.5zM263.25 97H227m80 0h-36.25M267 40.75c15.878 0 28.75-3.917 28.75-8.75 0-4.832-12.872-8.75-28.75-8.75s-28.75 3.918-28.75 8.75c0 4.833 12.872 8.75 28.75 8.75z" stroke="#18486B" stroke-width="2.5" stroke-miterlimit="10"/>
    <path d="M295.75 38.25V47c0 4.833-12.871 8.75-28.75 8.75s-28.75-3.917-28.75-8.75v-8.75" stroke="#18486B" stroke-width="2.5" stroke-miterlimit="10"/>
    <path d="M295.75 53.25V62c0 4.832-12.871 8.75-28.75 8.75s-28.75-3.918-28.75-8.75v-8.75" stroke="#18486B" stroke-width="2.5" stroke-miterlimit="10"/>
    <path d="M295.75 68.25V77c0 4.832-12.871 8.75-28.75 8.75s-28.75-3.918-28.75-8.75v-8.75m27.5 10h2.5m-7.5 0h2.5m7.5 0h2.5m-7.5-15h2.5m-7.5 0h2.5m7.5 0h2.5m-7.5-15h2.5m-7.5 0h2.5m7.5 0h2.5" stroke="#18486B" stroke-width="2.5" stroke-miterlimit="10"/>
  </g>
  <defs>
    <filter id="Graphic__filter0_d" x="0" y="210" width="128" height="128" filterUnits="userSpaceOnUse" color-interpolation-filters="sRGB">
      <feFlood flood-opacity="0" result="BackgroundImageFix"/>
      <feColorMatrix in="SourceAlpha" values="0 0 0 0 0 0 0 0 0 0 0 0 0 0 0 0 0 0 127 0"/>
      <feOffset dy="2"/>
      <feGaussianBlur stdDeviation="4"/>
      <feColorMatrix values="0 0 0 0 0.0494791 0 0 0 0 0.399306 0 0 0 0 0.625 0 0 0 0.15 0"/>
      <feBlend in2="BackgroundImageFix" result="effect1_dropShadow"/>
      <feBlend in="SourceGraphic" in2="effect1_dropShadow" result="shape"/>
    </filter>
    <filter id="Graphic__filter1_d" x="193" y="410" width="148" height="148" filterUnits="userSpaceOnUse" color-interpolation-filters="sRGB">
      <feFlood flood-opacity="0" result="BackgroundImageFix"/>
      <feColorMatrix in="SourceAlpha" values="0 0 0 0 0 0 0 0 0 0 0 0 0 0 0 0 0 0 127 0"/>
      <feOffset dy="2"/>
      <feGaussianBlur stdDeviation="4"/>
      <feColorMatrix values="0 0 0 0 0.0494791 0 0 0 0 0.399306 0 0 0 0 0.625 0 0 0 0.15 0"/>
      <feBlend in2="BackgroundImageFix" result="effect1_dropShadow"/>
      <feBlend in="SourceGraphic" in2="effect1_dropShadow" result="shape"/>
    </filter>
    <filter id="Graphic__filter2_d" x="413" y="210" width="128" height="128" filterUnits="userSpaceOnUse" color-interpolation-filters="sRGB">
      <feFlood flood-opacity="0" result="BackgroundImageFix"/>
      <feColorMatrix in="SourceAlpha" values="0 0 0 0 0 0 0 0 0 0 0 0 0 0 0 0 0 0 127 0"/>
      <feOffset dy="2"/>
      <feGaussianBlur stdDeviation="4"/>
      <feColorMatrix values="0 0 0 0 0.0494791 0 0 0 0 0.399306 0 0 0 0 0.625 0 0 0 0.15 0"/>
      <feBlend in2="BackgroundImageFix" result="effect1_dropShadow"/>
      <feBlend in="SourceGraphic" in2="effect1_dropShadow" result="shape"/>
    </filter>
    <filter id="Graphic__filter3_d" x="203" y="0" width="128" height="128" filterUnits="userSpaceOnUse" color-interpolation-filters="sRGB">
      <feFlood flood-opacity="0" result="BackgroundImageFix"/>
      <feColorMatrix in="SourceAlpha" values="0 0 0 0 0 0 0 0 0 0 0 0 0 0 0 0 0 0 127 0"/>
      <feOffset dy="2"/>
      <feGaussianBlur stdDeviation="4"/>
      <feColorMatrix values="0 0 0 0 0.0494791 0 0 0 0 0.399306 0 0 0 0 0.625 0 0 0 0.15 0"/>
      <feBlend in2="BackgroundImageFix" result="effect1_dropShadow"/>
      <feBlend in="SourceGraphic" in2="effect1_dropShadow" result="shape"/>
    </filter>
    <clipPath id="Graphic__clip0">
      <path fill="#fff" transform="translate(203 208)" d="M0 0h128v128H0z"/>
    </clipPath>
  </defs>
</svg>
